<svg width="28" height="28" viewBox="0 0 28 28" fill="none" xmlns="http://www.w3.org/2000/svg">
<g clip-path="url(#clip0_147_17478)">
<path d="M23.333 2.3335H4.66634C3.38301 2.3335 2.34467 3.3835 2.34467 4.66683L2.33301 25.6668L6.99967 21.0002H23.333C24.6163 21.0002 25.6663 19.9502 25.6663 18.6668V4.66683C25.6663 3.3835 24.6163 2.3335 23.333 2.3335ZM8.16634 10.5002H19.833C20.4747 10.5002 20.9997 11.0252 20.9997 11.6668C20.9997 12.3085 20.4747 12.8335 19.833 12.8335H8.16634C7.52467 12.8335 6.99967 12.3085 6.99967 11.6668C6.99967 11.0252 7.52467 10.5002 8.16634 10.5002ZM15.1663 16.3335H8.16634C7.52467 16.3335 6.99967 15.8085 6.99967 15.1668C6.99967 14.5252 7.52467 14.0002 8.16634 14.0002H15.1663C15.808 14.0002 16.333 14.5252 16.333 15.1668C16.333 15.8085 15.808 16.3335 15.1663 16.3335ZM19.833 9.3335H8.16634C7.52467 9.3335 6.99967 8.8085 6.99967 8.16683C6.99967 7.52516 7.52467 7.00016 8.16634 7.00016H19.833C20.4747 7.00016 20.9997 7.52516 20.9997 8.16683C20.9997 8.8085 20.4747 9.3335 19.833 9.3335Z" fill="white"/>
</g>
<defs>
<clipPath id="clip0_147_17478">
<rect width="28" height="28" fill="white"/>
</clipPath>
</defs>
</svg>
