<svg width="18" height="16" viewBox="0 0 18 16" fill="none" xmlns="http://www.w3.org/2000/svg">
<path d="M10.7665 2.33341L12.2915 4.00008H15.6665V14.0001H2.33317V4.00008H5.70817L7.23317 2.33341H10.7665ZM11.4998 0.666748H6.49984L4.97484 2.33341H2.33317C1.4165 2.33341 0.666504 3.08341 0.666504 4.00008V14.0001C0.666504 14.9167 1.4165 15.6667 2.33317 15.6667H15.6665C16.5832 15.6667 17.3332 14.9167 17.3332 14.0001V4.00008C17.3332 3.08341 16.5832 2.33341 15.6665 2.33341H13.0248L11.4998 0.666748ZM8.99984 6.50008C10.3748 6.50008 11.4998 7.62508 11.4998 9.00008C11.4998 10.3751 10.3748 11.5001 8.99984 11.5001C7.62484 11.5001 6.49984 10.3751 6.49984 9.00008C6.49984 7.62508 7.62484 6.50008 8.99984 6.50008ZM8.99984 4.83341C6.69984 4.83341 4.83317 6.70008 4.83317 9.00008C4.83317 11.3001 6.69984 13.1667 8.99984 13.1667C11.2998 13.1667 13.1665 11.3001 13.1665 9.00008C13.1665 6.70008 11.2998 4.83341 8.99984 4.83341Z" fill="#B2B2B2"/>
</svg>
