<svg width="20" height="20" viewBox="0 0 20 20" fill="none" xmlns="http://www.w3.org/2000/svg">
<path fill-rule="evenodd" clip-rule="evenodd" d="M4.99935 4.16667C4.99935 3.24619 5.74554 2.5 6.66602 2.5H13.3327C14.2532 2.5 14.9993 3.24619 14.9993 4.16667V5H4.99935V4.16667ZM3.33268 7.91667C3.33268 6.99619 4.07887 6.25 4.99935 6.25H14.9993C15.9198 6.25 16.666 6.99619 16.666 7.91667V8.75H3.33268V7.91667ZM1.66602 11.6667C1.66602 10.7462 2.41221 10 3.33268 10H16.666C17.5865 10 18.3327 10.7462 18.3327 11.6667V14.1667C18.3327 16.0076 16.8403 17.5 14.9993 17.5H4.99935C3.1584 17.5 1.66602 16.0076 1.66602 14.1667V11.6667ZM7.70768 12.5C7.70768 12.1548 7.9875 11.875 8.33268 11.875H11.666C12.0112 11.875 12.291 12.1548 12.291 12.5C12.291 12.8452 12.0112 13.125 11.666 13.125H8.33268C7.9875 13.125 7.70768 12.8452 7.70768 12.5Z" fill="white"/>
</svg>
