<svg width="22" height="22" viewBox="0 0 22 22" fill="none" xmlns="http://www.w3.org/2000/svg">
<g clip-path="url(#clip0_118_12939)">
<path d="M19.8701 19.7325H1.92068C1.28224 19.7325 0.764648 19.215 0.764648 18.5765V7.97295C0.764648 6.12717 2.26096 4.63086 4.10674 4.63086H19.8701C20.5085 4.63086 21.0261 5.14845 21.0261 5.78689V18.5765C21.0262 19.2149 20.5086 19.7325 19.8701 19.7325Z" fill="url(#paint0_linear_118_12939)"/>
<path d="M19.8701 19.7325H1.92068C1.28224 19.7325 0.764648 19.215 0.764648 18.5765V7.97295C0.764648 6.12717 2.26096 4.63086 4.10674 4.63086H19.8701C20.5085 4.63086 21.0261 5.14845 21.0261 5.78689V18.5765C21.0262 19.2149 20.5086 19.7325 19.8701 19.7325Z" fill="url(#paint1_linear_118_12939)"/>
<path d="M9.40918 16.3595L9.44185 2.43831C9.44238 2.21243 9.62591 2.02975 9.85179 2.03027L17.1181 2.0473C17.344 2.04782 17.5267 2.23139 17.5261 2.45727L17.4935 16.3784C17.4929 16.6043 17.3094 16.787 17.0835 16.7865L9.81718 16.7694C9.59134 16.7689 9.40866 16.5854 9.40918 16.3595Z" fill="url(#paint2_linear_118_12939)"/>
<path d="M9.69043 16.0577L9.72165 2.74178C9.72213 2.52873 9.89526 2.35645 10.1083 2.35693L16.8606 2.37279C17.0736 2.37327 17.2459 2.54639 17.2454 2.75945L17.2142 16.0753C17.2137 16.2884 17.0406 16.4606 16.8275 16.4601L10.0752 16.4443C9.86222 16.4438 9.68995 16.2707 9.69043 16.0577Z" fill="url(#paint3_linear_118_12939)"/>
<path d="M15.0235 15.5456C15.0251 14.8629 15.5798 14.3107 16.2626 14.3123C16.2906 14.3124 16.3184 14.3134 16.346 14.3154C16.4783 14.3246 16.5908 14.2204 16.5911 14.0878L16.613 4.74405C16.6133 4.61142 16.5013 4.50667 16.369 4.51534C16.3414 4.51716 16.3136 4.51804 16.2856 4.51796C15.6028 4.51635 15.0507 3.96161 15.0523 3.27888C15.0523 3.27807 15.0523 3.27726 15.0523 3.27646C15.0528 3.14823 14.9521 3.04275 14.8239 3.04243L12.1422 3.03613C12.0139 3.03585 11.9128 3.14085 11.9127 3.26907V3.27149C11.9111 3.95422 11.3564 4.50639 10.6736 4.50477C10.6456 4.50469 10.6178 4.50368 10.5902 4.50175C10.4579 4.49247 10.3454 4.5967 10.3451 4.72932L10.3232 14.0731C10.3229 14.2057 10.4349 14.3104 10.5673 14.3018C10.5948 14.3 10.6227 14.2991 10.6507 14.2992C11.3334 14.3008 11.8856 14.8555 11.884 15.5382V15.5407C11.8834 15.6689 11.9841 15.7744 12.1123 15.7747L14.7941 15.781C14.9223 15.7813 15.0235 15.6763 15.0235 15.548C15.0235 15.5472 15.0235 15.5464 15.0235 15.5456Z" fill="url(#paint4_linear_118_12939)"/>
<path d="M13.4675 12.2245C15.0228 12.2245 16.2836 10.9637 16.2836 9.40839C16.2836 7.8531 15.0228 6.59229 13.4675 6.59229C11.9122 6.59229 10.6514 7.8531 10.6514 9.40839C10.6514 10.9637 11.9122 12.2245 13.4675 12.2245Z" fill="url(#paint5_linear_118_12939)"/>
<path d="M15.165 10.5181C15.2321 10.4753 15.2881 10.3926 15.3327 10.2693C15.3808 10.1364 15.4136 9.99466 15.4317 9.84449C15.4369 9.83646 15.4414 9.82828 15.4452 9.81997L15.6841 9.59804C15.7098 9.56319 15.7228 9.52555 15.7229 9.48522C15.723 9.44113 15.7102 9.40341 15.6846 9.37219C15.659 9.34089 15.6297 9.32524 15.5966 9.32516L15.4369 9.3248C15.4045 9.02728 15.306 8.7782 15.1412 8.57769C14.9764 8.3771 14.7344 8.27654 14.4155 8.27578C14.3018 8.2755 14.1983 8.28808 14.1047 8.31361C14.0112 8.33902 13.9296 8.38114 13.8598 8.43974C13.79 8.49827 13.7303 8.55414 13.6807 8.60734C13.6804 8.6077 13.6801 8.60815 13.6797 8.60851C13.6797 8.60851 12.9854 9.29955 12.985 9.29991C12.9781 9.30633 12.9717 9.31262 12.9651 9.31899L12.0437 9.31681C12.0551 9.1541 12.0975 9.01086 12.1711 8.88711C12.2446 8.76336 12.3135 8.66619 12.3779 8.5954C12.4422 8.52465 12.4744 8.4675 12.4746 8.42393C12.4747 8.35818 12.44 8.29974 12.3705 8.24847C12.301 8.19716 12.2314 8.17155 12.1618 8.17139C12.0505 8.17111 11.9406 8.23359 11.8322 8.35879L9.42205 10.7577L9.40918 16.247L15.165 10.5181Z" fill="url(#paint6_linear_118_12939)"/>
<path d="M12.1624 8.17139C12.232 8.17155 12.3016 8.19716 12.3711 8.24847C12.4406 8.29978 12.4753 8.35822 12.4751 8.42397C12.475 8.46754 12.4428 8.52469 12.3785 8.59544C12.3141 8.66623 12.2452 8.7634 12.1717 8.88715C12.0981 9.01094 12.0556 9.15414 12.0442 9.31685L13.336 9.31988C13.3766 9.2098 13.4089 9.12538 13.4328 9.06673C13.4567 9.008 13.4918 8.93003 13.5378 8.83286C13.5838 8.73561 13.6316 8.66042 13.6813 8.60734C13.7309 8.55418 13.7906 8.49827 13.8603 8.43974C13.9301 8.3811 14.0117 8.33902 14.1053 8.31361C14.1988 8.28812 14.3024 8.27554 14.416 8.27578C14.735 8.27654 14.9769 8.3771 15.1417 8.57769C15.3065 8.7782 15.4051 9.02728 15.4374 9.3248L15.5971 9.32516C15.6302 9.32524 15.6595 9.34089 15.6852 9.37219C15.7107 9.40341 15.7236 9.44113 15.7234 9.48522C15.7234 9.52559 15.7103 9.56319 15.6846 9.59804C15.6588 9.63285 15.6294 9.65023 15.5964 9.65015L15.4477 9.64979C15.4397 9.87373 15.4016 10.0802 15.3333 10.2692C15.2648 10.4582 15.1701 10.5525 15.0489 10.5522C14.9828 10.5521 14.914 10.5296 14.8425 10.485C14.771 10.4405 14.7353 10.3811 14.7355 10.307C14.7356 10.2778 14.7669 10.1974 14.8297 10.066C14.8924 9.93456 14.9295 9.79536 14.9408 9.64858L13.8245 9.64596C13.7691 9.79189 13.7166 9.91318 13.6669 10.0098C13.6172 10.1064 13.5483 10.2086 13.46 10.3162C13.3718 10.4237 13.2607 10.5047 13.1269 10.5591C12.993 10.6136 12.8362 10.6406 12.6566 10.6402C12.3285 10.6395 12.068 10.5494 11.8749 10.3699C11.6818 10.1905 11.5635 9.94739 11.52 9.64055L11.336 9.64011C11.3035 9.64003 11.2748 9.62248 11.2495 9.58755C11.2244 9.55258 11.2118 9.5149 11.2119 9.47453C11.212 9.43044 11.2248 9.39277 11.25 9.36167C11.2753 9.33049 11.3042 9.31496 11.3366 9.31504L11.5042 9.31544C11.5087 8.99598 11.5824 8.72528 11.7254 8.50348C11.8687 8.28171 12.0142 8.17102 12.1624 8.17139ZM14.4697 8.82128C14.3267 8.82096 14.2176 8.86517 14.1423 8.95411C14.0669 9.04293 13.9961 9.17632 13.9297 9.35437L14.9311 9.35671C14.8879 9.00034 14.7341 8.82189 14.4697 8.82128ZM12.0546 9.60885C12.1124 9.9321 12.2935 10.0942 12.5977 10.0949C12.7589 10.0952 12.8854 10.0533 12.9772 9.96905C13.069 9.88475 13.1481 9.76563 13.2145 9.61155L12.0546 9.60885Z" fill="url(#paint7_linear_118_12939)"/>
<path d="M16.015 3.99755C15.6921 3.99679 15.4309 3.7344 15.4316 3.41147C15.4324 3.08854 15.6948 2.82736 16.0177 2.82813C16.3407 2.82889 16.6018 3.09128 16.6011 3.41421C16.6003 3.73714 16.3379 3.99832 16.015 3.99755Z" fill="url(#paint8_linear_118_12939)"/>
<path d="M15.9867 16.0015C15.6637 16.0007 15.4026 15.7383 15.4033 15.4154C15.4041 15.0924 15.6665 14.8313 15.9894 14.832C16.3123 14.8328 16.5735 15.0952 16.5727 15.4181C16.572 15.741 16.3096 16.0022 15.9867 16.0015Z" fill="url(#paint9_linear_118_12939)"/>
<path d="M10.948 3.98583C11.2709 3.98583 11.5327 3.72405 11.5327 3.40112C11.5327 3.07819 11.2709 2.81641 10.948 2.81641C10.6251 2.81641 10.3633 3.07819 10.3633 3.40112C10.3633 3.72405 10.6251 3.98583 10.948 3.98583Z" fill="url(#paint10_linear_118_12939)"/>
<path d="M10.9197 15.9892C11.2426 15.9892 11.5044 15.7275 11.5044 15.4045C11.5044 15.0816 11.2426 14.8198 10.9197 14.8198C10.5967 14.8198 10.335 15.0816 10.335 15.4045C10.335 15.7275 10.5967 15.9892 10.9197 15.9892Z" fill="url(#paint11_linear_118_12939)"/>
<path d="M9.82077 16.8164L5.14206 3.705C5.06615 3.49226 5.17708 3.25823 5.38981 3.18232L12.2335 0.740209C12.4462 0.664296 12.6802 0.775221 12.7562 0.987953L17.4349 14.0994C17.5108 14.3121 17.3999 14.5461 17.1871 14.6221L10.3434 17.0642C10.1307 17.1401 9.89669 17.0292 9.82077 16.8164Z" fill="url(#paint12_linear_118_12939)"/>
<path d="M9.98319 16.4375L5.5079 3.89617C5.4363 3.69553 5.54089 3.47482 5.74156 3.40322L12.1011 1.13387C12.3017 1.06227 12.5224 1.1669 12.594 1.36754L17.0693 13.9089C17.1409 14.1095 17.0363 14.3302 16.8357 14.4018L10.4761 16.6712C10.2755 16.7428 10.0548 16.6382 9.98319 16.4375Z" fill="url(#paint13_linear_118_12939)"/>
<path d="M14.8279 14.1513C14.5984 13.5082 14.9337 12.801 15.5767 12.5715C15.6031 12.5621 15.6296 12.5536 15.6562 12.5461C15.7838 12.5101 15.8544 12.374 15.8099 12.2491L12.6696 3.44881C12.625 3.32389 12.4842 3.26323 12.3626 3.31615C12.3372 3.32716 12.3114 3.3374 12.285 3.34684C11.6419 3.57632 10.9347 3.24104 10.7052 2.59804C10.7049 2.59728 10.7047 2.59651 10.7044 2.59574C10.6615 2.4749 10.5311 2.40967 10.4103 2.45275L7.88458 3.35406C7.76382 3.39714 7.70412 3.53021 7.74748 3.6509C7.74776 3.65166 7.74804 3.65243 7.74829 3.65316C7.97776 4.29619 7.64248 5.00345 6.99949 5.23292C6.97307 5.24236 6.94656 5.25079 6.91998 5.25829C6.79232 5.29431 6.72173 5.43045 6.76634 5.55537L9.90663 14.3556C9.9512 14.4805 10.092 14.5412 10.2136 14.4883C10.239 14.4773 10.2649 14.467 10.2912 14.4576C10.9343 14.2281 11.6415 14.5634 11.871 15.2064C11.8713 15.2072 11.8715 15.208 11.8718 15.2087C11.9147 15.3295 12.0451 15.3948 12.1659 15.3516L14.6916 14.4503C14.8124 14.4072 14.8721 14.2742 14.8287 14.1535C14.8284 14.1528 14.8282 14.152 14.8279 14.1513Z" fill="url(#paint14_linear_118_12939)"/>
<path d="M11.2888 11.7186C12.8441 11.7186 14.1049 10.4578 14.1049 8.90253C14.1049 7.34724 12.8441 6.08643 11.2888 6.08643C9.73347 6.08643 8.47266 7.34724 8.47266 8.90253C8.47266 10.4578 9.73347 11.7186 11.2888 11.7186Z" fill="url(#paint15_linear_118_12939)"/>
<path d="M13.2618 9.37222C13.3106 9.30934 13.3352 9.21253 13.3355 9.08136C13.3358 8.94002 13.3187 8.79557 13.285 8.64811C13.2871 8.63883 13.2886 8.62959 13.2893 8.62047L13.4391 8.33082C13.4515 8.28932 13.4511 8.24954 13.4375 8.21151C13.4227 8.17 13.3978 8.13882 13.3632 8.11809C13.3285 8.09732 13.2956 8.09252 13.2645 8.10361L13.114 8.1573C12.9829 7.88825 12.8059 7.68722 12.583 7.55427C12.3601 7.42124 12.0984 7.40845 11.798 7.51567C11.6909 7.55387 11.5977 7.60074 11.5183 7.65636C11.4389 7.71194 11.3764 7.77914 11.3305 7.85792C11.2847 7.93662 11.2474 8.00938 11.2187 8.07622C11.2185 8.0767 11.2184 8.07723 11.2182 8.07767C11.2182 8.07767 10.7986 8.96285 10.7983 8.96333C10.794 8.97172 10.7901 8.97983 10.786 8.98802L9.91817 9.29768C9.87384 9.14069 9.86533 8.99157 9.89272 8.85019C9.92007 8.70885 9.95202 8.5941 9.98864 8.50572C10.0252 8.41738 10.0362 8.35268 10.0216 8.31166C9.99945 8.24975 9.94702 8.20651 9.86425 8.18174C9.78148 8.15697 9.70734 8.15641 9.64175 8.1798C9.53692 8.21719 9.45467 8.31315 9.39501 8.46764L7.93848 11.5404L9.78337 16.7105L13.2618 9.37222Z" fill="url(#paint16_linear_118_12939)"/>
<path d="M9.64092 8.18029C9.70651 8.1569 9.78064 8.15746 9.86341 8.18223C9.94618 8.20699 9.99862 8.25023 10.0207 8.31215C10.0354 8.35317 10.0244 8.41787 9.98781 8.50621C9.95119 8.59458 9.9192 8.70938 9.89189 8.85072C9.86446 8.9921 9.87301 9.14122 9.9173 9.29821L11.134 8.86403C11.1349 8.74673 11.1367 8.65634 11.1394 8.59305C11.1421 8.52968 11.1486 8.44445 11.1591 8.33748C11.1695 8.23043 11.1891 8.14346 11.2178 8.07671C11.2465 8.00987 11.2838 7.9371 11.3296 7.85841C11.3755 7.77963 11.438 7.71243 11.5174 7.65685C11.5968 7.60119 11.69 7.55431 11.797 7.51616C12.0975 7.40894 12.3592 7.42173 12.5821 7.55476C12.805 7.68771 12.982 7.88874 13.1131 8.15774L13.2635 8.10406C13.2947 8.09296 13.3276 8.09776 13.3623 8.11854C13.3969 8.13927 13.4217 8.17045 13.4366 8.21195C13.4501 8.24995 13.4506 8.28976 13.4382 8.33127C13.4257 8.37273 13.4039 8.39907 13.3727 8.41021L13.2327 8.46018C13.3009 8.6736 13.3349 8.88077 13.3346 9.0818C13.3341 9.28276 13.2769 9.4036 13.1627 9.44434C13.1005 9.46657 13.0281 9.46871 12.9458 9.45092C12.8634 9.43317 12.8098 9.38933 12.7849 9.31963C12.775 9.29208 12.7773 9.2058 12.792 9.06095C12.8066 8.91602 12.7944 8.77251 12.7554 8.63052L11.704 9.00569C11.7013 9.16175 11.6929 9.29365 11.6788 9.40143C11.6647 9.50916 11.6344 9.62864 11.5877 9.75969C11.5411 9.89074 11.464 10.0045 11.3565 10.101C11.2489 10.1975 11.1105 10.2761 10.9414 10.3364C10.6324 10.4467 10.3567 10.45 10.1143 10.3465C9.87193 10.2429 9.67835 10.0542 9.53359 9.78014L9.36026 9.84198C9.32969 9.85287 9.29665 9.84609 9.26112 9.82177C9.22562 9.79737 9.20105 9.76615 9.1875 9.72815C9.1727 9.68664 9.17193 9.64687 9.18512 9.60908C9.19847 9.57116 9.22038 9.5468 9.25095 9.53587L9.40879 9.47956C9.30488 9.1774 9.28269 8.89775 9.34227 8.64061C9.40189 8.38346 9.5014 8.23007 9.64092 8.18029ZM12.032 8.01132C11.8974 8.05936 11.8096 8.13794 11.7689 8.24705C11.728 8.35612 11.7065 8.50564 11.7042 8.69559L12.6474 8.35902C12.4862 8.03831 12.2811 7.92246 12.032 8.01132ZM10.0258 9.56943C10.1896 9.85404 10.4148 9.94532 10.7012 9.84311C10.8531 9.78894 10.9579 9.70661 11.0158 9.59633C11.0737 9.48593 11.1078 9.34709 11.1182 9.17966L10.0258 9.56943Z" fill="url(#paint17_linear_118_12939)"/>
<path d="M11.8546 2.94858C11.5505 3.05713 11.216 2.89852 11.1074 2.59439C10.9989 2.29026 11.1575 1.95571 11.4616 1.84716C11.7657 1.73862 12.1003 1.89722 12.2088 2.20135C12.3174 2.50549 12.1588 2.84004 11.8546 2.94858Z" fill="url(#paint18_linear_118_12939)"/>
<path d="M15.8888 14.2538C15.5847 14.3623 15.2501 14.2037 15.1416 13.8996C15.0331 13.5954 15.1917 13.2609 15.4958 13.1523C15.7999 13.0438 16.1345 13.2024 16.243 13.5065C16.3516 13.8107 16.193 14.1452 15.8888 14.2538Z" fill="url(#paint19_linear_118_12939)"/>
<path d="M6.88452 4.68554C7.20745 4.68554 7.46923 4.42375 7.46923 4.10083C7.46923 3.7779 7.20745 3.51611 6.88452 3.51611C6.56159 3.51611 6.2998 3.7779 6.2998 4.10083C6.2998 4.42375 6.56159 4.68554 6.88452 4.68554Z" fill="url(#paint20_linear_118_12939)"/>
<path d="M11.1154 15.9569C10.8113 16.0654 10.4767 15.9068 10.3682 15.6027C10.2596 15.2986 10.4182 14.964 10.7224 14.8555C11.0265 14.7469 11.361 14.9055 11.4696 15.2097C11.5781 15.5138 11.4195 15.8483 11.1154 15.9569Z" fill="url(#paint21_linear_118_12939)"/>
<path d="M10.362 17.1021L1.52367 6.34642C1.38028 6.17189 1.40549 5.91418 1.57998 5.77075L7.19401 1.15746C7.36854 1.01407 7.62625 1.03928 7.76968 1.21377L16.6081 11.9694C16.7515 12.1439 16.7262 12.4016 16.5517 12.5451L10.9377 17.1584C10.7632 17.3018 10.5054 17.2765 10.362 17.1021Z" fill="url(#paint22_linear_118_12939)"/>
<path d="M10.3865 16.6899L1.93246 6.40195C1.79721 6.23734 1.82097 5.99428 1.98558 5.85903L7.20241 1.5721C7.36702 1.43686 7.61009 1.46061 7.74534 1.62523L16.1994 11.9132C16.3347 12.0778 16.3109 12.3209 16.1463 12.4561L10.9295 16.743C10.7649 16.8783 10.5218 16.8545 10.3865 16.6899Z" fill="url(#paint23_linear_118_12939)"/>
<path d="M14.1722 12.8999C13.7387 12.3725 13.815 11.5935 14.3424 11.16C14.3641 11.1422 14.3862 11.1253 14.4087 11.1092C14.5166 11.0321 14.537 10.8802 14.4528 10.7777L8.52057 3.55866C8.43634 3.45621 8.28331 3.44673 8.18678 3.53765C8.16666 3.55661 8.1458 3.575 8.12414 3.59279C7.59667 4.02624 6.81765 3.95005 6.3842 3.42253C6.38368 3.42192 6.38319 3.42128 6.38267 3.42067C6.30147 3.32145 6.15667 3.30418 6.0576 3.38562L3.98565 5.08825C3.88659 5.16965 3.87542 5.31506 3.95706 5.41396C3.95758 5.41457 3.95806 5.41522 3.95859 5.41582C4.39204 5.9433 4.31581 6.72231 3.78833 7.15576C3.76667 7.17355 3.74457 7.19049 3.7221 7.20654C3.61416 7.28363 3.59379 7.43561 3.67801 7.53807L9.61025 14.7571C9.69447 14.8596 9.8475 14.869 9.94403 14.7781C9.96416 14.7592 9.98501 14.7408 10.0067 14.7229C10.5341 14.2895 11.3132 14.3657 11.7466 14.8932C11.7471 14.8938 11.7476 14.8945 11.7481 14.8951C11.8294 14.9943 11.9741 15.0115 12.0733 14.9301L14.1452 13.2275C14.2443 13.1461 14.2554 13.0007 14.1738 12.9018C14.1732 12.9012 14.1727 12.9006 14.1722 12.8999Z" fill="url(#paint24_linear_118_12939)"/>
<path d="M9.06611 11.974C10.6214 11.974 11.8822 10.7132 11.8822 9.1579C11.8822 7.60261 10.6214 6.3418 9.06611 6.3418C7.51081 6.3418 6.25 7.60261 6.25 9.1579C6.25 10.7132 7.51081 11.974 9.06611 11.974Z" fill="url(#paint25_linear_118_12939)"/>
<path d="M11.0817 8.93287C11.1062 8.8572 11.0967 8.75777 11.0526 8.63422C11.0051 8.50115 10.9401 8.37099 10.8585 8.24361C10.8573 8.23413 10.8556 8.22497 10.8532 8.21614L10.8962 7.89288C10.8938 7.8496 10.8799 7.81233 10.8542 7.78115C10.8262 7.74711 10.7923 7.72617 10.7528 7.71839C10.713 7.7106 10.6805 7.71718 10.6549 7.73815L10.5315 7.83956C10.3171 7.63074 10.0826 7.50142 9.82785 7.45173C9.57305 7.40195 9.32244 7.47847 9.07598 7.681C8.98821 7.75312 8.91633 7.82879 8.86047 7.90801C8.80452 7.98719 8.76838 8.07157 8.75192 8.1612C8.73539 8.25075 8.72494 8.33186 8.72054 8.40447C8.7205 8.40499 8.7205 8.40552 8.7205 8.40604C8.7205 8.40604 8.62507 9.38096 8.62507 9.38149C8.62386 9.39085 8.62289 9.3998 8.6218 9.40892L7.90991 9.99391C7.81508 9.86117 7.75663 9.72374 7.73461 9.58139C7.7125 9.43913 7.70379 9.32034 7.70835 9.22474C7.71286 9.12923 7.70133 9.06465 7.6737 9.03097C7.63195 8.98018 7.56798 8.95723 7.4817 8.96191C7.39546 8.96663 7.32548 8.99116 7.27167 9.03536C7.18567 9.10603 7.14074 9.22414 7.13682 9.38972L6.80566 12.774L10.2908 17.0152L11.0817 8.93287Z" fill="url(#paint26_linear_118_12939)"/>
<path d="M7.27185 9.0358C7.32566 8.99159 7.39561 8.96706 7.48188 8.96234C7.56816 8.95762 7.63214 8.98062 7.67389 9.0314C7.70156 9.06504 7.71305 9.12966 7.70853 9.22513C7.70398 9.32069 7.71269 9.43952 7.73479 9.58179C7.75682 9.72413 7.81526 9.86156 7.91009 9.9943L8.90817 9.17415C8.86933 9.06347 8.84049 8.97775 8.82165 8.91729C8.80269 8.85678 8.78006 8.77434 8.75368 8.67015C8.72726 8.56588 8.71629 8.47738 8.72077 8.4049C8.72517 8.33229 8.73561 8.25122 8.75215 8.16167C8.76861 8.07205 8.80475 7.98762 8.86069 7.90848C8.9166 7.82926 8.98844 7.75363 9.07621 7.68147C9.32266 7.47894 9.57327 7.40247 9.82808 7.4522C10.0828 7.50189 10.3174 7.63121 10.5317 7.84003L10.6552 7.73863C10.6807 7.71765 10.7133 7.71104 10.753 7.71882C10.7926 7.72661 10.8265 7.74754 10.8545 7.78158C10.8801 7.81276 10.894 7.85003 10.8964 7.89332C10.8986 7.9366 10.8871 7.96874 10.8615 7.98972L10.7466 8.08415C10.8831 8.26187 10.9852 8.44536 11.0528 8.63461C11.1203 8.82387 11.1074 8.95694 11.0137 9.0339C10.9627 9.07585 10.8953 9.10235 10.8118 9.11352C10.7282 9.1247 10.6629 9.10158 10.6159 9.04439C10.5974 9.0218 10.5703 8.93984 10.5351 8.79854C10.4998 8.65724 10.4398 8.52631 10.355 8.40587L9.49256 9.11461C9.54282 9.26236 9.57953 9.38934 9.60272 9.49555C9.62587 9.60171 9.63781 9.72437 9.63825 9.86349C9.6387 10.0026 9.60466 10.1358 9.53604 10.2629C9.46747 10.3902 9.36381 10.5109 9.22509 10.6249C8.97162 10.8332 8.71327 10.9296 8.45019 10.9142C8.18704 10.8987 7.94107 10.7866 7.71212 10.5777L7.56994 10.6945C7.54485 10.7151 7.51149 10.7199 7.46982 10.709C7.42816 10.698 7.39452 10.677 7.36886 10.6458C7.34087 10.6118 7.32671 10.5746 7.32635 10.5346C7.32607 10.4944 7.33845 10.464 7.36354 10.4434L7.49302 10.337C7.29303 10.0878 7.17751 9.83215 7.14661 9.57005C7.11563 9.30786 7.15742 9.12986 7.27185 9.0358ZM9.46485 8.06789C9.35441 8.15865 9.29838 8.26227 9.29697 8.37872C9.2954 8.49517 9.32569 8.6432 9.38789 8.8227L10.1616 8.18692C9.90137 7.9397 9.66915 7.90005 9.46485 8.06789ZM8.10399 10.2129C8.3544 10.4253 8.59722 10.435 8.83222 10.2419C8.95678 10.1395 9.02761 10.0266 9.04475 9.90323C9.06185 9.77976 9.04701 9.63757 9.0001 9.47647L8.10399 10.2129Z" fill="url(#paint27_linear_118_12939)"/>
<path d="M7.21362 3.49804C7.53655 3.49804 7.79833 3.23625 7.79833 2.91333C7.79833 2.5904 7.53655 2.32861 7.21362 2.32861C6.89069 2.32861 6.62891 2.5904 6.62891 2.91333C6.62891 3.23625 6.89069 3.49804 7.21362 3.49804Z" fill="url(#paint28_linear_118_12939)"/>
<path d="M14.8347 12.7725C15.1576 12.7725 15.4194 12.5107 15.4194 12.1877C15.4194 11.8648 15.1576 11.603 14.8347 11.603C14.5118 11.603 14.25 11.8648 14.25 12.1877C14.25 12.5107 14.5118 12.7725 14.8347 12.7725Z" fill="url(#paint29_linear_118_12939)"/>
<path d="M3.2976 6.71532C3.62053 6.71532 3.88232 6.45354 3.88232 6.13061C3.88232 5.80768 3.62053 5.5459 3.2976 5.5459C2.97468 5.5459 2.71289 5.80768 2.71289 6.13061C2.71289 6.45354 2.97468 6.71532 3.2976 6.71532Z" fill="url(#paint30_linear_118_12939)"/>
<path d="M10.9187 15.9897C11.2416 15.9897 11.5034 15.728 11.5034 15.405C11.5034 15.0821 11.2416 14.8203 10.9187 14.8203C10.5958 14.8203 10.334 15.0821 10.334 15.405C10.334 15.728 10.5958 15.9897 10.9187 15.9897Z" fill="url(#paint31_linear_118_12939)"/>
<path d="M18.4095 21.2858H1.92068C1.28224 21.2858 0.764648 20.7682 0.764648 20.1298V8.49783C0.764648 7.85935 1.28224 7.3418 1.92068 7.3418H18.4095C19.0479 7.3418 19.5655 7.85935 19.5655 8.49783V20.1298C19.5656 20.7682 19.048 21.2858 18.4095 21.2858Z" fill="url(#paint32_linear_118_12939)"/>
<path d="M19.5654 20.0864V16.1089H15.5879L19.5654 20.0864Z" fill="url(#paint33_linear_118_12939)"/>
<path d="M18.376 12.4787H15.8039C15.4732 12.4787 15.2051 12.7468 15.2051 13.0775V15.5511C15.2051 15.8818 15.4732 16.1499 15.8039 16.1499H18.376C19.3189 16.1499 20.2112 15.7234 20.8035 14.9897L20.9734 14.7792C21.1421 14.5702 21.2341 14.3097 21.2341 14.0411V11.4707C21.2341 11.2423 20.9469 11.1408 20.8035 11.3186C20.2112 12.0522 19.3189 12.4787 18.376 12.4787Z" fill="url(#paint34_linear_118_12939)"/>
<path d="M19.8667 15.5515V15.5425L17.7772 13.453C17.5464 13.2053 17.2175 13.0503 16.8522 13.0503C16.154 13.0503 15.5879 13.6164 15.5879 14.3147C15.5879 14.6799 15.7429 15.0088 15.9906 15.2396L16.9012 16.1502H19.2679C19.5986 16.1502 19.8667 15.8821 19.8667 15.5515Z" fill="url(#paint35_linear_118_12939)"/>
<path d="M16.8523 15.579C17.5506 15.579 18.1166 15.013 18.1166 14.3147C18.1166 13.6164 17.5506 13.0503 16.8523 13.0503C16.154 13.0503 15.5879 13.6164 15.5879 14.3147C15.5879 15.013 16.154 15.579 16.8523 15.579Z" fill="url(#paint36_radial_118_12939)"/>
<path d="M17.9808 14.3146C17.9808 14.938 17.4756 15.4432 16.8522 15.4432C16.2289 15.4432 15.7236 14.938 15.7236 14.3146C15.7236 13.6913 16.2289 13.186 16.8522 13.186C17.4755 13.186 17.9808 13.6913 17.9808 14.3146Z" fill="url(#paint37_linear_118_12939)"/>
<path d="M17.4183 13.1841C17.5036 13.3543 17.5516 13.5463 17.5516 13.7497C17.5516 14.448 16.9856 15.0141 16.2873 15.0141C16.0839 15.0141 15.8919 14.966 15.7217 14.8807C15.9292 15.295 16.3577 15.5795 16.8527 15.5795C17.551 15.5795 18.1171 15.0134 18.1171 14.3151C18.1171 13.8201 17.8326 13.3917 17.4183 13.1841Z" fill="url(#paint38_linear_118_12939)"/>
<path d="M17.7069 13.773C17.7069 14.0975 17.3241 14.3605 16.852 14.3605C16.3798 14.3605 15.9971 14.0975 15.9971 13.773C15.9971 13.4486 16.3798 13.1855 16.852 13.1855C17.3242 13.1856 17.7069 13.4486 17.7069 13.773Z" fill="url(#paint39_linear_118_12939)"/>
</g>
<defs>
<linearGradient id="paint0_linear_118_12939" x1="16.5085" y1="2.79811" x2="14.532" y2="6.38802" gradientUnits="userSpaceOnUse">
<stop stop-color="#8A7889"/>
<stop offset="1" stop-color="#6E566E"/>
</linearGradient>
<linearGradient id="paint1_linear_118_12939" x1="18.0235" y1="4.27336" x2="15.8857" y2="6.85487" gradientUnits="userSpaceOnUse">
<stop stop-color="#6E566E" stop-opacity="0"/>
<stop offset="0.2191" stop-color="#685168" stop-opacity="0.219"/>
<stop offset="1" stop-color="#564357"/>
</linearGradient>
<linearGradient id="paint2_linear_118_12939" x1="15.4162" y1="8.67205" x2="4.95287" y2="12.7837" gradientUnits="userSpaceOnUse">
<stop stop-color="#4AB272"/>
<stop offset="1" stop-color="#077565"/>
</linearGradient>
<linearGradient id="paint3_linear_118_12939" x1="12.1171" y1="10.0617" x2="29.2283" y2="2.14868" gradientUnits="userSpaceOnUse">
<stop stop-color="#92F37F" stop-opacity="0"/>
<stop offset="1" stop-color="#FFEE83"/>
</linearGradient>
<linearGradient id="paint4_linear_118_12939" x1="15.0049" y1="8.93551" x2="8.01813" y2="11.2234" gradientUnits="userSpaceOnUse">
<stop stop-color="#91F27F"/>
<stop offset="1" stop-color="#00B302"/>
</linearGradient>
<linearGradient id="paint5_linear_118_12939" x1="12.0466" y1="11.6" x2="17.572" y2="3.13645" gradientUnits="userSpaceOnUse">
<stop stop-color="#92F37F"/>
<stop offset="1" stop-color="#4AB272"/>
</linearGradient>
<linearGradient id="paint6_linear_118_12939" x1="12.0036" y1="11.4257" x2="14.6527" y2="5.47377" gradientUnits="userSpaceOnUse">
<stop stop-color="#4AB272" stop-opacity="0"/>
<stop offset="1" stop-color="#009245"/>
</linearGradient>
<linearGradient id="paint7_linear_118_12939" x1="13.6973" y1="9.17546" x2="12.1386" y2="11.4799" gradientUnits="userSpaceOnUse">
<stop stop-color="#4AB272"/>
<stop offset="1" stop-color="#077565"/>
</linearGradient>
<linearGradient id="paint8_linear_118_12939" x1="16.2028" y1="3.26126" x2="15.0108" y2="4.36055" gradientUnits="userSpaceOnUse">
<stop stop-color="#91F27F"/>
<stop offset="1" stop-color="#00B302"/>
</linearGradient>
<linearGradient id="paint9_linear_118_12939" x1="16.1781" y1="15.2651" x2="14.9861" y2="16.3645" gradientUnits="userSpaceOnUse">
<stop stop-color="#91F27F"/>
<stop offset="1" stop-color="#00B302"/>
</linearGradient>
<linearGradient id="paint10_linear_118_12939" x1="11.1344" y1="3.25106" x2="9.94239" y2="4.35039" gradientUnits="userSpaceOnUse">
<stop stop-color="#91F27F"/>
<stop offset="1" stop-color="#00B302"/>
</linearGradient>
<linearGradient id="paint11_linear_118_12939" x1="11.1097" y1="15.2545" x2="9.91769" y2="16.3538" gradientUnits="userSpaceOnUse">
<stop stop-color="#91F27F"/>
<stop offset="1" stop-color="#00B302"/>
</linearGradient>
<linearGradient id="paint12_linear_118_12939" x1="12.862" y1="7.49742" x2="4.40178" y2="14.9033" gradientUnits="userSpaceOnUse">
<stop stop-color="#4AB272"/>
<stop offset="1" stop-color="#077565"/>
</linearGradient>
<linearGradient id="paint13_linear_118_12939" x1="10.2258" y1="9.92056" x2="23.6595" y2="-3.30991" gradientUnits="userSpaceOnUse">
<stop stop-color="#92F37F" stop-opacity="0"/>
<stop offset="1" stop-color="#FFEE83"/>
</linearGradient>
<linearGradient id="paint14_linear_118_12939" x1="12.563" y1="7.88443" x2="6.75912" y2="12.3988" gradientUnits="userSpaceOnUse">
<stop stop-color="#91F27F"/>
<stop offset="1" stop-color="#00B302"/>
</linearGradient>
<linearGradient id="paint15_linear_118_12939" x1="10.6799" y1="11.3925" x2="13.0215" y2="1.55831" gradientUnits="userSpaceOnUse">
<stop stop-color="#92F37F"/>
<stop offset="1" stop-color="#4AB272"/>
</linearGradient>
<linearGradient id="paint16_linear_118_12939" x1="10.5807" y1="11.2427" x2="11.0634" y2="4.74468" gradientUnits="userSpaceOnUse">
<stop stop-color="#4AB272" stop-opacity="0"/>
<stop offset="1" stop-color="#009245"/>
</linearGradient>
<linearGradient id="paint17_linear_118_12939" x1="11.4133" y1="8.55268" x2="10.7247" y2="11.2486" gradientUnits="userSpaceOnUse">
<stop stop-color="#4AB272"/>
<stop offset="1" stop-color="#077565"/>
</linearGradient>
<linearGradient id="paint18_linear_118_12939" x1="11.7736" y1="2.13809" x2="11.0229" y2="3.57571" gradientUnits="userSpaceOnUse">
<stop stop-color="#91F27F"/>
<stop offset="1" stop-color="#00B302"/>
</linearGradient>
<linearGradient id="paint19_linear_118_12939" x1="15.8066" y1="13.4457" x2="15.0559" y2="14.8833" gradientUnits="userSpaceOnUse">
<stop stop-color="#91F27F"/>
<stop offset="1" stop-color="#00B302"/>
</linearGradient>
<linearGradient id="paint20_linear_118_12939" x1="6.99894" y1="3.84054" x2="6.2483" y2="5.27817" gradientUnits="userSpaceOnUse">
<stop stop-color="#91F27F"/>
<stop offset="1" stop-color="#00B302"/>
</linearGradient>
<linearGradient id="paint21_linear_118_12939" x1="11.0321" y1="15.1483" x2="10.2814" y2="16.5859" gradientUnits="userSpaceOnUse">
<stop stop-color="#91F27F"/>
<stop offset="1" stop-color="#00B302"/>
</linearGradient>
<linearGradient id="paint22_linear_118_12939" x1="10.0649" y1="7.30668" x2="4.60748" y2="17.1399" gradientUnits="userSpaceOnUse">
<stop stop-color="#4AB272"/>
<stop offset="1" stop-color="#077565"/>
</linearGradient>
<linearGradient id="paint23_linear_118_12939" x1="8.40335" y1="10.4787" x2="16.5713" y2="-6.51957" gradientUnits="userSpaceOnUse">
<stop stop-color="#92F37F" stop-opacity="0"/>
<stop offset="1" stop-color="#FFEE83"/>
</linearGradient>
<linearGradient id="paint24_linear_118_12939" x1="9.91426" y1="7.7719" x2="5.97879" y2="13.9847" gradientUnits="userSpaceOnUse">
<stop stop-color="#91F27F"/>
<stop offset="1" stop-color="#00B302"/>
</linearGradient>
<linearGradient id="paint25_linear_118_12939" x1="9.32872" y1="11.7109" x2="8.2054" y2="1.66224" gradientUnits="userSpaceOnUse">
<stop stop-color="#92F37F"/>
<stop offset="1" stop-color="#4AB272"/>
</linearGradient>
<linearGradient id="paint26_linear_118_12939" x1="9.18466" y1="11.6039" x2="7.44038" y2="5.32435" gradientUnits="userSpaceOnUse">
<stop stop-color="#4AB272" stop-opacity="0"/>
<stop offset="1" stop-color="#009245"/>
</linearGradient>
<linearGradient id="paint27_linear_118_12939" x1="9.05903" y1="8.78996" x2="9.32303" y2="11.5605" gradientUnits="userSpaceOnUse">
<stop stop-color="#4AB272"/>
<stop offset="1" stop-color="#077565"/>
</linearGradient>
<linearGradient id="paint28_linear_118_12939" x1="7.22734" y1="2.63173" x2="7.00719" y2="4.23883" gradientUnits="userSpaceOnUse">
<stop stop-color="#91F27F"/>
<stop offset="1" stop-color="#00B302"/>
</linearGradient>
<linearGradient id="paint29_linear_118_12939" x1="14.8497" y1="11.9109" x2="14.6295" y2="13.5181" gradientUnits="userSpaceOnUse">
<stop stop-color="#91F27F"/>
<stop offset="1" stop-color="#00B302"/>
</linearGradient>
<linearGradient id="paint30_linear_118_12939" x1="3.30933" y1="5.84951" x2="3.08917" y2="7.45667" gradientUnits="userSpaceOnUse">
<stop stop-color="#91F27F"/>
<stop offset="1" stop-color="#00B302"/>
</linearGradient>
<linearGradient id="paint31_linear_118_12939" x1="10.9316" y1="15.1287" x2="10.7114" y2="16.7359" gradientUnits="userSpaceOnUse">
<stop stop-color="#91F27F"/>
<stop offset="1" stop-color="#00B302"/>
</linearGradient>
<linearGradient id="paint32_linear_118_12939" x1="5.08303" y1="6.06459" x2="15.7479" y2="23.3759" gradientUnits="userSpaceOnUse">
<stop stop-color="#8A7889"/>
<stop offset="1" stop-color="#6E566E"/>
</linearGradient>
<linearGradient id="paint33_linear_118_12939" x1="19.4183" y1="19.1571" x2="17.2431" y2="15.5569" gradientUnits="userSpaceOnUse">
<stop stop-color="#6E566E" stop-opacity="0"/>
<stop offset="0.2191" stop-color="#685168" stop-opacity="0.219"/>
<stop offset="1" stop-color="#564357"/>
</linearGradient>
<linearGradient id="paint34_linear_118_12939" x1="18.03" y1="12.6055" x2="18.635" y2="15.5501" gradientUnits="userSpaceOnUse">
<stop stop-color="#FF7044"/>
<stop offset="1" stop-color="#F82814"/>
</linearGradient>
<linearGradient id="paint35_linear_118_12939" x1="18.6909" y1="15.9665" x2="17.1906" y2="14.6682" gradientUnits="userSpaceOnUse">
<stop stop-color="#F82814" stop-opacity="0"/>
<stop offset="1" stop-color="#C0272D"/>
</linearGradient>
<radialGradient id="paint36_radial_118_12939" cx="0" cy="0" r="1" gradientUnits="userSpaceOnUse" gradientTransform="translate(16.4882 13.8291) scale(1.57541)">
<stop stop-color="#FFD945"/>
<stop offset="0.4169" stop-color="#FFD744"/>
<stop offset="0.6278" stop-color="#FFCF3F"/>
<stop offset="0.7926" stop-color="#FFC237"/>
<stop offset="0.9326" stop-color="#FFAF2C"/>
<stop offset="1" stop-color="#FFA325"/>
</radialGradient>
<linearGradient id="paint37_linear_118_12939" x1="17.0719" y1="14.5343" x2="15.5593" y2="13.0218" gradientUnits="userSpaceOnUse">
<stop stop-color="#FFD945" stop-opacity="0"/>
<stop offset="1" stop-color="#FBED21"/>
</linearGradient>
<linearGradient id="paint38_linear_118_12939" x1="17.3898" y1="14.3626" x2="19.7451" y2="12.369" gradientUnits="userSpaceOnUse">
<stop stop-color="#E87264" stop-opacity="0"/>
<stop offset="1" stop-color="#FF7044"/>
</linearGradient>
<linearGradient id="paint39_linear_118_12939" x1="16.852" y1="13.9254" x2="16.852" y2="12.7331" gradientUnits="userSpaceOnUse">
<stop stop-color="white" stop-opacity="0"/>
<stop offset="1" stop-color="white"/>
</linearGradient>
<clipPath id="clip0_118_12939">
<rect width="20.5714" height="20.5714" fill="white" transform="translate(0.713867 0.714355)"/>
</clipPath>
</defs>
</svg>
