<svg width="36" height="36" viewBox="0 0 36 36" fill="none" xmlns="http://www.w3.org/2000/svg">
<circle cx="18" cy="18" r="18" fill="#FF5151" fill-opacity="0.24"/>
<g clip-path="url(#clip0_118_13241)">
<path d="M26.8701 26.7325H8.92068C8.28224 26.7325 7.76465 26.215 7.76465 25.5765V14.973C7.76465 13.1272 9.26096 11.6309 11.1067 11.6309H26.8701C27.5085 11.6309 28.0261 12.1485 28.0261 12.7869V25.5765C28.0262 26.2149 27.5086 26.7325 26.8701 26.7325Z" fill="url(#paint0_linear_118_13241)"/>
<path d="M26.8701 26.7325H8.92068C8.28224 26.7325 7.76465 26.215 7.76465 25.5765V14.973C7.76465 13.1272 9.26096 11.6309 11.1067 11.6309H26.8701C27.5085 11.6309 28.0261 12.1485 28.0261 12.7869V25.5765C28.0262 26.2149 27.5086 26.7325 26.8701 26.7325Z" fill="url(#paint1_linear_118_13241)"/>
<path d="M16.4092 23.3595L16.4419 9.43831C16.4424 9.21243 16.6259 9.02975 16.8518 9.03027L24.1181 9.0473C24.344 9.04782 24.5267 9.23139 24.5261 9.45727L24.4935 23.3784C24.4929 23.6043 24.3094 23.787 24.0835 23.7865L16.8172 23.7694C16.5913 23.7689 16.4087 23.5854 16.4092 23.3595Z" fill="url(#paint2_linear_118_13241)"/>
<path d="M16.6904 23.0577L16.7217 9.74178C16.7221 9.52873 16.8953 9.35645 17.1083 9.35693L23.8606 9.37279C24.0736 9.37327 24.2459 9.54639 24.2454 9.75945L24.2142 23.0753C24.2137 23.2884 24.0406 23.4606 23.8275 23.4601L17.0752 23.4443C16.8622 23.4438 16.6899 23.2707 16.6904 23.0577Z" fill="url(#paint3_linear_118_13241)"/>
<path d="M22.0235 22.5456C22.0251 21.8629 22.5798 21.3107 23.2626 21.3123C23.2906 21.3124 23.3184 21.3134 23.346 21.3154C23.4783 21.3246 23.5908 21.2204 23.5911 21.0878L23.613 11.744C23.6133 11.6114 23.5013 11.5067 23.369 11.5153C23.3414 11.5172 23.3136 11.518 23.2856 11.518C22.6028 11.5163 22.0507 10.9616 22.0523 10.2789C22.0523 10.2781 22.0523 10.2773 22.0523 10.2765C22.0528 10.1482 21.9521 10.0427 21.8239 10.0424L19.1422 10.0361C19.0139 10.0359 18.9128 10.1408 18.9127 10.2691V10.2715C18.9111 10.9542 18.3564 11.5064 17.6736 11.5048C17.6456 11.5047 17.6178 11.5037 17.5902 11.5017C17.4579 11.4925 17.3454 11.5967 17.3451 11.7293L17.3232 21.0731C17.3229 21.2057 17.4349 21.3104 17.5673 21.3018C17.5948 21.3 17.6227 21.2991 17.6507 21.2992C18.3334 21.3008 18.8856 21.8555 18.884 22.5382V22.5407C18.8834 22.6689 18.9841 22.7744 19.1123 22.7747L21.7941 22.781C21.9223 22.7813 22.0235 22.6763 22.0235 22.548C22.0235 22.5472 22.0235 22.5464 22.0235 22.5456Z" fill="url(#paint4_linear_118_13241)"/>
<path d="M20.4675 19.2245C22.0228 19.2245 23.2836 17.9637 23.2836 16.4084C23.2836 14.8531 22.0228 13.5923 20.4675 13.5923C18.9122 13.5923 17.6514 14.8531 17.6514 16.4084C17.6514 17.9637 18.9122 19.2245 20.4675 19.2245Z" fill="url(#paint5_linear_118_13241)"/>
<path d="M22.165 17.5181C22.2321 17.4753 22.2881 17.3926 22.3327 17.2693C22.3808 17.1364 22.4136 16.9947 22.4317 16.8445C22.4369 16.8365 22.4414 16.8283 22.4452 16.82L22.6841 16.598C22.7098 16.5632 22.7228 16.5256 22.7229 16.4852C22.723 16.4411 22.7102 16.4034 22.6846 16.3722C22.659 16.3409 22.6297 16.3252 22.5966 16.3252L22.4369 16.3248C22.4045 16.0273 22.306 15.7782 22.1412 15.5777C21.9764 15.3771 21.7344 15.2765 21.4155 15.2758C21.3018 15.2755 21.1983 15.2881 21.1047 15.3136C21.0112 15.339 20.9296 15.3811 20.8598 15.4397C20.79 15.4983 20.7303 15.5541 20.6807 15.6073C20.6804 15.6077 20.6801 15.6081 20.6797 15.6085C20.6797 15.6085 19.9854 16.2995 19.985 16.2999C19.9781 16.3063 19.9717 16.3126 19.9651 16.319L19.0437 16.3168C19.0551 16.1541 19.0975 16.0109 19.1711 15.8871C19.2446 15.7634 19.3135 15.6662 19.3779 15.5954C19.4422 15.5247 19.4744 15.4675 19.4746 15.4239C19.4747 15.3582 19.44 15.2997 19.3705 15.2485C19.301 15.1972 19.2314 15.1715 19.1618 15.1714C19.0505 15.1711 18.9406 15.2336 18.8322 15.3588L16.422 17.7577L16.4092 23.247L22.165 17.5181Z" fill="url(#paint6_linear_118_13241)"/>
<path d="M19.1624 15.1714C19.232 15.1715 19.3016 15.1972 19.3711 15.2485C19.4406 15.2998 19.4753 15.3582 19.4751 15.424C19.475 15.4675 19.4428 15.5247 19.3785 15.5954C19.3141 15.6662 19.2452 15.7634 19.1717 15.8872C19.0981 16.0109 19.0556 16.1541 19.0442 16.3169L20.336 16.3199C20.3766 16.2098 20.4089 16.1254 20.4328 16.0667C20.4567 16.008 20.4918 15.93 20.5378 15.8329C20.5838 15.7356 20.6316 15.6604 20.6813 15.6073C20.7309 15.5542 20.7906 15.4983 20.8603 15.4397C20.9301 15.3811 21.0117 15.339 21.1053 15.3136C21.1988 15.2881 21.3024 15.2755 21.416 15.2758C21.735 15.2765 21.9769 15.3771 22.1417 15.5777C22.3065 15.7782 22.4051 16.0273 22.4374 16.3248L22.5971 16.3252C22.6302 16.3252 22.6595 16.3409 22.6852 16.3722C22.7107 16.4034 22.7236 16.4411 22.7234 16.4852C22.7234 16.5256 22.7103 16.5632 22.6846 16.598C22.6588 16.6328 22.6294 16.6502 22.5964 16.6502L22.4477 16.6498C22.4397 16.8737 22.4016 17.0802 22.3333 17.2692C22.2648 17.4582 22.1701 17.5525 22.0489 17.5522C21.9828 17.5521 21.914 17.5296 21.8425 17.485C21.771 17.4405 21.7353 17.3811 21.7355 17.307C21.7356 17.2778 21.7669 17.1974 21.8297 17.066C21.8924 16.9346 21.9295 16.7954 21.9408 16.6486L20.8245 16.646C20.7691 16.7919 20.7166 16.9132 20.6669 17.0098C20.6172 17.1064 20.5483 17.2086 20.46 17.3162C20.3718 17.4237 20.2607 17.5047 20.1269 17.5591C19.993 17.6136 19.8362 17.6406 19.6566 17.6402C19.3285 17.6395 19.068 17.5494 18.8749 17.3699C18.6818 17.1905 18.5635 16.9474 18.52 16.6406L18.336 16.6401C18.3035 16.64 18.2748 16.6225 18.2495 16.5875C18.2244 16.5526 18.2118 16.5149 18.2119 16.4745C18.212 16.4304 18.2248 16.3928 18.25 16.3617C18.2753 16.3305 18.3042 16.315 18.3366 16.315L18.5042 16.3154C18.5087 15.996 18.5824 15.7253 18.7254 15.5035C18.8687 15.2817 19.0142 15.171 19.1624 15.1714ZM21.4697 15.8213C21.3267 15.821 21.2176 15.8652 21.1423 15.9541C21.0669 16.0429 20.9961 16.1763 20.9297 16.3544L21.9311 16.3567C21.8879 16.0003 21.7341 15.8219 21.4697 15.8213ZM19.0546 16.6088C19.1124 16.9321 19.2935 17.0942 19.5977 17.0949C19.7589 17.0952 19.8854 17.0533 19.9772 16.969C20.069 16.8847 20.1481 16.7656 20.2145 16.6115L19.0546 16.6088Z" fill="url(#paint7_linear_118_13241)"/>
<path d="M23.015 10.9976C22.6921 10.9968 22.4309 10.7344 22.4316 10.4115C22.4324 10.0885 22.6948 9.82736 23.0177 9.82813C23.3407 9.82889 23.6018 10.0913 23.6011 10.4142C23.6003 10.7371 23.3379 10.9983 23.015 10.9976Z" fill="url(#paint8_linear_118_13241)"/>
<path d="M22.9867 23.0015C22.6637 23.0007 22.4026 22.7383 22.4033 22.4154C22.4041 22.0924 22.6665 21.8313 22.9894 21.832C23.3123 21.8328 23.5735 22.0952 23.5727 22.4181C23.572 22.741 23.3096 23.0022 22.9867 23.0015Z" fill="url(#paint9_linear_118_13241)"/>
<path d="M17.948 10.9858C18.2709 10.9858 18.5327 10.724 18.5327 10.4011C18.5327 10.0782 18.2709 9.81641 17.948 9.81641C17.6251 9.81641 17.3633 10.0782 17.3633 10.4011C17.3633 10.724 17.6251 10.9858 17.948 10.9858Z" fill="url(#paint10_linear_118_13241)"/>
<path d="M17.9197 22.9892C18.2426 22.9892 18.5044 22.7275 18.5044 22.4045C18.5044 22.0816 18.2426 21.8198 17.9197 21.8198C17.5967 21.8198 17.335 22.0816 17.335 22.4045C17.335 22.7275 17.5967 22.9892 17.9197 22.9892Z" fill="url(#paint11_linear_118_13241)"/>
<path d="M16.8208 23.8164L12.1421 10.705C12.0662 10.4923 12.1771 10.2582 12.3898 10.1823L19.2335 7.74021C19.4462 7.6643 19.6802 7.77522 19.7562 7.98795L24.4349 21.0994C24.5108 21.3121 24.3999 21.5461 24.1871 21.6221L17.3434 24.0642C17.1307 24.1401 16.8967 24.0292 16.8208 23.8164Z" fill="url(#paint12_linear_118_13241)"/>
<path d="M16.9832 23.4375L12.5079 10.8962C12.4363 10.6955 12.5409 10.4748 12.7416 10.4032L19.1011 8.13387C19.3017 8.06227 19.5224 8.1669 19.594 8.36754L24.0693 20.9089C24.1409 21.1095 24.0363 21.3302 23.8357 21.4018L17.4761 23.6712C17.2755 23.7428 17.0548 23.6382 16.9832 23.4375Z" fill="url(#paint13_linear_118_13241)"/>
<path d="M21.8279 21.1513C21.5984 20.5082 21.9337 19.801 22.5767 19.5715C22.6031 19.5621 22.6296 19.5536 22.6562 19.5461C22.7838 19.5101 22.8544 19.374 22.8099 19.2491L19.6696 10.4488C19.625 10.3239 19.4842 10.2632 19.3626 10.3161C19.3372 10.3272 19.3114 10.3374 19.285 10.3468C18.6419 10.5763 17.9347 10.241 17.7052 9.59804C17.7049 9.59728 17.7047 9.59651 17.7044 9.59574C17.6615 9.4749 17.5311 9.40967 17.4103 9.45275L14.8846 10.3541C14.7638 10.3971 14.7041 10.5302 14.7475 10.6509C14.7478 10.6517 14.748 10.6524 14.7483 10.6532C14.9778 11.2962 14.6425 12.0034 13.9995 12.2329C13.9731 12.2424 13.9466 12.2508 13.92 12.2583C13.7923 12.2943 13.7217 12.4304 13.7663 12.5554L16.9066 21.3556C16.9512 21.4805 17.092 21.5412 17.2136 21.4883C17.239 21.4773 17.2649 21.467 17.2912 21.4576C17.9343 21.2281 18.6415 21.5634 18.871 22.2064C18.8713 22.2072 18.8715 22.208 18.8718 22.2087C18.9147 22.3295 19.0451 22.3948 19.1659 22.3516L21.6916 21.4503C21.8124 21.4072 21.8721 21.2742 21.8287 21.1535C21.8284 21.1528 21.8282 21.152 21.8279 21.1513Z" fill="url(#paint14_linear_118_13241)"/>
<path d="M18.2888 18.7186C19.8441 18.7186 21.1049 17.4578 21.1049 15.9025C21.1049 14.3472 19.8441 13.0864 18.2888 13.0864C16.7335 13.0864 15.4727 14.3472 15.4727 15.9025C15.4727 17.4578 16.7335 18.7186 18.2888 18.7186Z" fill="url(#paint15_linear_118_13241)"/>
<path d="M20.2618 16.3722C20.3106 16.3093 20.3352 16.2125 20.3355 16.0814C20.3358 15.94 20.3187 15.7956 20.285 15.6481C20.2871 15.6388 20.2886 15.6296 20.2893 15.6205L20.4391 15.3308C20.4515 15.2893 20.4511 15.2495 20.4375 15.2115C20.4227 15.17 20.3978 15.1388 20.3632 15.1181C20.3285 15.0973 20.2956 15.0925 20.2645 15.1036L20.114 15.1573C19.9829 14.8883 19.8059 14.6872 19.583 14.5543C19.3601 14.4212 19.0984 14.4085 18.798 14.5157C18.6909 14.5539 18.5977 14.6007 18.5183 14.6564C18.4389 14.7119 18.3764 14.7791 18.3305 14.8579C18.2847 14.9366 18.2474 15.0094 18.2187 15.0762C18.2185 15.0767 18.2184 15.0772 18.2182 15.0777C18.2182 15.0777 17.7986 15.9628 17.7983 15.9633C17.794 15.9717 17.7901 15.9798 17.786 15.988L16.9182 16.2977C16.8738 16.1407 16.8653 15.9916 16.8927 15.8502C16.9201 15.7089 16.952 15.5941 16.9886 15.5057C17.0252 15.4174 17.0362 15.3527 17.0216 15.3117C16.9995 15.2497 16.947 15.2065 16.8642 15.1817C16.7815 15.157 16.7073 15.1564 16.6418 15.1798C16.5369 15.2172 16.4547 15.3132 16.395 15.4676L14.9385 18.5404L16.7834 23.7105L20.2618 16.3722Z" fill="url(#paint16_linear_118_13241)"/>
<path d="M16.6409 15.1803C16.7065 15.1569 16.7806 15.1575 16.8634 15.1822C16.9462 15.207 16.9986 15.2502 17.0207 15.3121C17.0354 15.3532 17.0244 15.4179 16.9878 15.5062C16.9512 15.5946 16.9192 15.7094 16.8919 15.8507C16.8645 15.9921 16.873 16.1412 16.9173 16.2982L18.134 15.864C18.1349 15.7467 18.1367 15.6563 18.1394 15.5931C18.1421 15.5297 18.1486 15.4445 18.1591 15.3375C18.1695 15.2304 18.1891 15.1435 18.2178 15.0767C18.2465 15.0099 18.2838 14.9371 18.3296 14.8584C18.3755 14.7796 18.438 14.7124 18.5174 14.6568C18.5968 14.6012 18.69 14.5543 18.797 14.5162C19.0975 14.4089 19.3592 14.4217 19.5821 14.5548C19.805 14.6877 19.982 14.8887 20.1131 15.1577L20.2635 15.1041C20.2947 15.093 20.3276 15.0978 20.3623 15.1185C20.3969 15.1393 20.4217 15.1704 20.4366 15.212C20.4501 15.25 20.4506 15.2898 20.4382 15.3313C20.4257 15.3727 20.4039 15.3991 20.3727 15.4102L20.2327 15.4602C20.3009 15.6736 20.3349 15.8808 20.3346 16.0818C20.3341 16.2828 20.2769 16.4036 20.1627 16.4443C20.1005 16.4666 20.0281 16.4687 19.9458 16.4509C19.8634 16.4332 19.8098 16.3893 19.7849 16.3196C19.775 16.2921 19.7773 16.2058 19.792 16.0609C19.8066 15.916 19.7944 15.7725 19.7554 15.6305L18.704 16.0057C18.7013 16.1617 18.6929 16.2936 18.6788 16.4014C18.6647 16.5092 18.6344 16.6286 18.5877 16.7597C18.5411 16.8907 18.464 17.0045 18.3565 17.101C18.2489 17.1975 18.1105 17.2761 17.9414 17.3364C17.6324 17.4467 17.3567 17.45 17.1143 17.3465C16.8719 17.2429 16.6784 17.0542 16.5336 16.7801L16.3603 16.842C16.3297 16.8529 16.2967 16.8461 16.2611 16.8218C16.2256 16.7974 16.2011 16.7661 16.1875 16.7281C16.1727 16.6866 16.1719 16.6469 16.1851 16.6091C16.1985 16.5712 16.2204 16.5468 16.251 16.5359L16.4088 16.4796C16.3049 16.1774 16.2827 15.8977 16.3423 15.6406C16.4019 15.3835 16.5014 15.2301 16.6409 15.1803ZM19.032 15.0113C18.8974 15.0594 18.8096 15.1379 18.7689 15.247C18.728 15.3561 18.7065 15.5056 18.7042 15.6956L19.6474 15.359C19.4862 15.0383 19.2811 14.9225 19.032 15.0113ZM17.0258 16.5694C17.1896 16.854 17.4148 16.9453 17.7012 16.8431C17.8531 16.7889 17.9579 16.7066 18.0158 16.5963C18.0737 16.4859 18.1078 16.3471 18.1182 16.1797L17.0258 16.5694Z" fill="url(#paint17_linear_118_13241)"/>
<path d="M18.8546 9.94858C18.5505 10.0571 18.216 9.89852 18.1074 9.59439C17.9989 9.29026 18.1575 8.95571 18.4616 8.84716C18.7657 8.73862 19.1003 8.89722 19.2088 9.20135C19.3174 9.50549 19.1588 9.84004 18.8546 9.94858Z" fill="url(#paint18_linear_118_13241)"/>
<path d="M22.8888 21.2538C22.5847 21.3623 22.2501 21.2037 22.1416 20.8996C22.0331 20.5954 22.1917 20.2609 22.4958 20.1523C22.7999 20.0438 23.1345 20.2024 23.243 20.5065C23.3516 20.8107 23.193 21.1452 22.8888 21.2538Z" fill="url(#paint19_linear_118_13241)"/>
<path d="M13.8845 11.6855C14.2074 11.6855 14.4692 11.4238 14.4692 11.1008C14.4692 10.7779 14.2074 10.5161 13.8845 10.5161C13.5616 10.5161 13.2998 10.7779 13.2998 11.1008C13.2998 11.4238 13.5616 11.6855 13.8845 11.6855Z" fill="url(#paint20_linear_118_13241)"/>
<path d="M18.1154 22.9569C17.8113 23.0654 17.4767 22.9068 17.3682 22.6027C17.2596 22.2986 17.4182 21.964 17.7224 21.8555C18.0265 21.7469 18.361 21.9055 18.4696 22.2097C18.5781 22.5138 18.4195 22.8483 18.1154 22.9569Z" fill="url(#paint21_linear_118_13241)"/>
<path d="M17.363 24.1021L8.52465 13.3464C8.38125 13.1719 8.40646 12.9142 8.58096 12.7707L14.195 8.15746C14.3695 8.01407 14.6272 8.03928 14.7707 8.21377L23.609 18.9694C23.7525 19.1439 23.7272 19.4016 23.5527 19.5451L17.9387 24.1584C17.7642 24.3018 17.5064 24.2765 17.363 24.1021Z" fill="url(#paint22_linear_118_13241)"/>
<path d="M17.3875 23.6899L8.93343 13.402C8.79818 13.2373 8.82194 12.9943 8.98655 12.859L14.2034 8.5721C14.368 8.43686 14.6111 8.46061 14.7463 8.62523L23.2004 18.9132C23.3357 19.0778 23.3119 19.3209 23.1473 19.4561L17.9304 23.743C17.7659 23.8783 17.5228 23.8545 17.3875 23.6899Z" fill="url(#paint23_linear_118_13241)"/>
<path d="M21.1741 19.8999C20.7407 19.3725 20.8169 18.5935 21.3444 18.16C21.3661 18.1422 21.3882 18.1253 21.4106 18.1092C21.5186 18.0321 21.5389 17.8802 21.4547 17.7777L15.5225 10.5587C15.4383 10.4562 15.2853 10.4467 15.1887 10.5376C15.1686 10.5566 15.1478 10.575 15.1261 10.5928C14.5986 11.0262 13.8196 10.95 13.3862 10.4225C13.3856 10.4219 13.3851 10.4213 13.3846 10.4207C13.3034 10.3214 13.1586 10.3042 13.0596 10.3856L10.9876 12.0883C10.8885 12.1696 10.8774 12.3151 10.959 12.414C10.9595 12.4146 10.96 12.4152 10.9605 12.4158C11.394 12.9433 11.3178 13.7223 10.7903 14.1558C10.7686 14.1735 10.7465 14.1905 10.7241 14.2065C10.6161 14.2836 10.5957 14.4356 10.68 14.5381L16.6122 21.7571C16.6964 21.8596 16.8495 21.869 16.946 21.7781C16.9661 21.7592 16.987 21.7408 17.0086 21.7229C17.5361 21.2895 18.3151 21.3657 18.7486 21.8932C18.7491 21.8938 18.7496 21.8945 18.7501 21.8951C18.8313 21.9943 18.9761 22.0115 19.0752 21.9301L21.1472 20.2275C21.2462 20.1461 21.2574 20.0007 21.1757 19.9018C21.1752 19.9012 21.1747 19.9006 21.1741 19.8999Z" fill="url(#paint24_linear_118_13241)"/>
<path d="M16.0671 18.974C17.6224 18.974 18.8832 17.7132 18.8832 16.1579C18.8832 14.6026 17.6224 13.3418 16.0671 13.3418C14.5118 13.3418 13.251 14.6026 13.251 16.1579C13.251 17.7132 14.5118 18.974 16.0671 18.974Z" fill="url(#paint25_linear_118_13241)"/>
<path d="M18.0826 15.9329C18.1072 15.8572 18.0976 15.7578 18.0536 15.6342C18.006 15.5012 17.9411 15.371 17.8595 15.2436C17.8583 15.2341 17.8566 15.225 17.8542 15.2161L17.8971 14.8929C17.8947 14.8496 17.8808 14.8123 17.8552 14.7812C17.8272 14.7471 17.7933 14.7262 17.7537 14.7184C17.714 14.7106 17.6815 14.7172 17.6559 14.7382L17.5325 14.8396C17.3181 14.6307 17.0835 14.5014 16.8288 14.4517C16.574 14.402 16.3234 14.4785 16.077 14.681C15.9892 14.7531 15.9173 14.8288 15.8614 14.908C15.8055 14.9872 15.7694 15.0716 15.7529 15.1612C15.7364 15.2507 15.7259 15.3319 15.7215 15.4045C15.7215 15.405 15.7215 15.4055 15.7215 15.406C15.7215 15.406 15.626 16.381 15.626 16.3815C15.6248 16.3908 15.6239 16.3998 15.6228 16.4089L14.9109 16.9939C14.8161 16.8612 14.7576 16.7237 14.7356 16.5814C14.7135 16.4391 14.7048 16.3203 14.7093 16.2247C14.7138 16.1292 14.7023 16.0646 14.6747 16.031C14.6329 15.9802 14.569 15.9572 14.4827 15.9619C14.3964 15.9666 14.3265 15.9912 14.2726 16.0354C14.1866 16.106 14.1417 16.2241 14.1378 16.3897L13.8066 19.774L17.2918 24.0152L18.0826 15.9329Z" fill="url(#paint26_linear_118_13241)"/>
<path d="M14.2728 16.0358C14.3266 15.9916 14.3966 15.9671 14.4829 15.9623C14.5691 15.9576 14.6331 15.9806 14.6749 16.0314C14.7025 16.065 14.714 16.1297 14.7095 16.2251C14.705 16.3207 14.7137 16.4395 14.7358 16.5818C14.7578 16.7241 14.8162 16.8616 14.9111 16.9943L15.9091 16.1741C15.8703 16.0635 15.8415 15.9778 15.8226 15.9173C15.8037 15.8568 15.781 15.7743 15.7547 15.6701C15.7282 15.5659 15.7173 15.4774 15.7217 15.4049C15.7261 15.3323 15.7366 15.2512 15.7531 15.1617C15.7696 15.072 15.8057 14.9876 15.8617 14.9085C15.9176 14.8293 15.9894 14.7536 16.0772 14.6815C16.3236 14.4789 16.5742 14.4025 16.8291 14.4522C17.0838 14.5019 17.3184 14.6312 17.5327 14.84L17.6561 14.7386C17.6817 14.7177 17.7143 14.711 17.754 14.7188C17.7936 14.7266 17.8275 14.7475 17.8554 14.7816C17.8811 14.8128 17.895 14.85 17.8974 14.8933C17.8996 14.9366 17.888 14.9687 17.8625 14.9897L17.7476 15.0841C17.884 15.2619 17.9861 15.4454 18.0538 15.6346C18.1213 15.8239 18.1084 15.9569 18.0147 16.0339C17.9636 16.0759 17.8963 16.1024 17.8127 16.1135C17.7292 16.1247 17.6639 16.1016 17.6169 16.0444C17.5983 16.0218 17.5713 15.9398 17.5361 15.7985C17.5008 15.6572 17.4408 15.5263 17.356 15.4059L16.4935 16.1146C16.5438 16.2624 16.5805 16.3893 16.6037 16.4955C16.6268 16.6017 16.6388 16.7244 16.6392 16.8635C16.6397 17.0026 16.6056 17.1358 16.537 17.2629C16.4684 17.3902 16.3648 17.5109 16.2261 17.6249C15.9726 17.8332 15.7142 17.9296 15.4512 17.9142C15.188 17.8987 14.942 17.7866 14.7131 17.5777L14.5709 17.6945C14.5458 17.7151 14.5125 17.7199 14.4708 17.709C14.4291 17.698 14.3955 17.677 14.3698 17.6458C14.3418 17.6118 14.3277 17.5746 14.3273 17.5346C14.327 17.4944 14.3394 17.464 14.3645 17.4434L14.494 17.337C14.294 17.0878 14.1785 16.8322 14.1476 16.57C14.1166 16.3079 14.1584 16.1299 14.2728 16.0358ZM16.4658 15.0679C16.3554 15.1586 16.2994 15.2623 16.2979 15.3787C16.2964 15.4952 16.3267 15.6432 16.3889 15.8227L17.1626 15.1869C16.9023 14.9397 16.6701 14.9001 16.4658 15.0679ZM15.105 17.2129C15.3554 17.4253 15.5982 17.435 15.8332 17.2419C15.9578 17.1395 16.0286 17.0266 16.0457 16.9032C16.0628 16.7798 16.048 16.6376 16.0011 16.4765L15.105 17.2129Z" fill="url(#paint27_linear_118_13241)"/>
<path d="M14.2146 10.498C14.5375 10.498 14.7993 10.2363 14.7993 9.91333C14.7993 9.5904 14.5375 9.32861 14.2146 9.32861C13.8917 9.32861 13.6299 9.5904 13.6299 9.91333C13.6299 10.2363 13.8917 10.498 14.2146 10.498Z" fill="url(#paint28_linear_118_13241)"/>
<path d="M21.8357 19.7725C22.1586 19.7725 22.4204 19.5107 22.4204 19.1877C22.4204 18.8648 22.1586 18.603 21.8357 18.603C21.5128 18.603 21.251 18.8648 21.251 19.1877C21.251 19.5107 21.5128 19.7725 21.8357 19.7725Z" fill="url(#paint29_linear_118_13241)"/>
<path d="M10.2986 13.7153C10.6215 13.7153 10.8833 13.4535 10.8833 13.1306C10.8833 12.8077 10.6215 12.5459 10.2986 12.5459C9.97565 12.5459 9.71387 12.8077 9.71387 13.1306C9.71387 13.4535 9.97565 13.7153 10.2986 13.7153Z" fill="url(#paint30_linear_118_13241)"/>
<path d="M17.9197 22.9897C18.2426 22.9897 18.5044 22.728 18.5044 22.405C18.5044 22.0821 18.2426 21.8203 17.9197 21.8203C17.5967 21.8203 17.335 22.0821 17.335 22.405C17.335 22.728 17.5967 22.9897 17.9197 22.9897Z" fill="url(#paint31_linear_118_13241)"/>
<path d="M25.4095 28.2858H8.92068C8.28224 28.2858 7.76465 27.7682 7.76465 27.1298V15.4978C7.76465 14.8593 8.28224 14.3418 8.92068 14.3418H25.4095C26.0479 14.3418 26.5655 14.8593 26.5655 15.4978V27.1298C26.5656 27.7682 26.048 28.2858 25.4095 28.2858Z" fill="url(#paint32_linear_118_13241)"/>
<path d="M26.5654 27.0864V23.1089H22.5879L26.5654 27.0864Z" fill="url(#paint33_linear_118_13241)"/>
<path d="M25.376 19.4787H22.8039C22.4732 19.4787 22.2051 19.7468 22.2051 20.0775V22.5511C22.2051 22.8818 22.4732 23.1499 22.8039 23.1499H25.376C26.3189 23.1499 27.2112 22.7234 27.8035 21.9897L27.9734 21.7792C28.1421 21.5702 28.2341 21.3097 28.2341 21.0411V18.4707C28.2341 18.2423 27.9469 18.1408 27.8035 18.3186C27.2112 19.0522 26.3189 19.4787 25.376 19.4787Z" fill="url(#paint34_linear_118_13241)"/>
<path d="M26.8667 22.5515V22.5425L24.7772 20.453C24.5464 20.2053 24.2175 20.0503 23.8522 20.0503C23.154 20.0503 22.5879 20.6164 22.5879 21.3147C22.5879 21.6799 22.7429 22.0088 22.9906 22.2396L23.9012 23.1502H26.2679C26.5986 23.1502 26.8667 22.8821 26.8667 22.5515Z" fill="url(#paint35_linear_118_13241)"/>
<path d="M23.8523 22.579C24.5506 22.579 25.1166 22.013 25.1166 21.3147C25.1166 20.6164 24.5506 20.0503 23.8523 20.0503C23.154 20.0503 22.5879 20.6164 22.5879 21.3147C22.5879 22.013 23.154 22.579 23.8523 22.579Z" fill="url(#paint36_radial_118_13241)"/>
<path d="M24.9808 21.3146C24.9808 21.938 24.4756 22.4432 23.8522 22.4432C23.2289 22.4432 22.7236 21.938 22.7236 21.3146C22.7236 20.6913 23.2289 20.186 23.8522 20.186C24.4755 20.186 24.9808 20.6913 24.9808 21.3146Z" fill="url(#paint37_linear_118_13241)"/>
<path d="M24.4183 20.1841C24.5036 20.3543 24.5516 20.5463 24.5516 20.7497C24.5516 21.448 23.9856 22.0141 23.2873 22.0141C23.0839 22.0141 22.8919 21.966 22.7217 21.8807C22.9292 22.295 23.3577 22.5795 23.8527 22.5795C24.551 22.5795 25.1171 22.0134 25.1171 21.3151C25.1171 20.8201 24.8326 20.3917 24.4183 20.1841Z" fill="url(#paint38_linear_118_13241)"/>
<path d="M24.7069 20.773C24.7069 21.0975 24.3241 21.3605 23.852 21.3605C23.3798 21.3605 22.9971 21.0975 22.9971 20.773C22.9971 20.4486 23.3798 20.1855 23.852 20.1855C24.3242 20.1856 24.7069 20.4486 24.7069 20.773Z" fill="url(#paint39_linear_118_13241)"/>
</g>
<circle cx="18.3214" cy="27.9645" r="4.5" fill="#D9D9D9" stroke="#FF5151" stroke-width="0.642857"/>
<g clip-path="url(#clip1_118_13241)">
<path d="M17.9632 26.3072V26.4755C17.9632 27.3276 17.962 29.6227 17.9632 30.4747C17.9632 30.7595 18.2084 30.9301 18.4638 30.8273C18.6039 30.7708 18.6785 30.6499 18.6785 30.4702C18.6796 29.6215 18.6785 27.3321 18.6785 26.4835V26.3094C18.7282 26.3535 18.7598 26.3795 18.7881 26.4089C19.0231 26.6462 19.2559 26.8835 19.4921 27.1208C19.596 27.2248 19.7203 27.2666 19.8661 27.2259C20.004 27.1886 20.0865 27.0971 20.117 26.9603C20.1464 26.8292 20.1102 26.7106 20.0164 26.6168C19.5395 26.1377 19.0627 25.6608 18.5835 25.1851C18.4276 25.0314 18.2106 25.0336 18.0536 25.1885C17.5767 25.6608 17.1021 26.1354 16.6297 26.6123C16.4761 26.7682 16.4772 27.0044 16.6218 27.1434C16.7665 27.2824 16.9936 27.2733 17.1518 27.1163C17.3857 26.8835 17.6151 26.6473 17.8468 26.4134C17.8784 26.3829 17.9101 26.3558 17.9632 26.3072Z" fill="#FF5151"/>
</g>
<defs>
<linearGradient id="paint0_linear_118_13241" x1="23.5085" y1="9.79811" x2="21.532" y2="13.388" gradientUnits="userSpaceOnUse">
<stop stop-color="#8A7889"/>
<stop offset="1" stop-color="#6E566E"/>
</linearGradient>
<linearGradient id="paint1_linear_118_13241" x1="25.0235" y1="11.2734" x2="22.8857" y2="13.8549" gradientUnits="userSpaceOnUse">
<stop stop-color="#6E566E" stop-opacity="0"/>
<stop offset="0.2191" stop-color="#685168" stop-opacity="0.219"/>
<stop offset="1" stop-color="#564357"/>
</linearGradient>
<linearGradient id="paint2_linear_118_13241" x1="22.4162" y1="15.6721" x2="11.9529" y2="19.7837" gradientUnits="userSpaceOnUse">
<stop stop-color="#4AB272"/>
<stop offset="1" stop-color="#077565"/>
</linearGradient>
<linearGradient id="paint3_linear_118_13241" x1="19.1171" y1="17.0617" x2="36.2283" y2="9.14868" gradientUnits="userSpaceOnUse">
<stop stop-color="#92F37F" stop-opacity="0"/>
<stop offset="1" stop-color="#FFEE83"/>
</linearGradient>
<linearGradient id="paint4_linear_118_13241" x1="22.0049" y1="15.9355" x2="15.0181" y2="18.2234" gradientUnits="userSpaceOnUse">
<stop stop-color="#91F27F"/>
<stop offset="1" stop-color="#00B302"/>
</linearGradient>
<linearGradient id="paint5_linear_118_13241" x1="19.0466" y1="18.6" x2="24.572" y2="10.1365" gradientUnits="userSpaceOnUse">
<stop stop-color="#92F37F"/>
<stop offset="1" stop-color="#4AB272"/>
</linearGradient>
<linearGradient id="paint6_linear_118_13241" x1="19.0036" y1="18.4257" x2="21.6527" y2="12.4738" gradientUnits="userSpaceOnUse">
<stop stop-color="#4AB272" stop-opacity="0"/>
<stop offset="1" stop-color="#009245"/>
</linearGradient>
<linearGradient id="paint7_linear_118_13241" x1="20.6973" y1="16.1755" x2="19.1386" y2="18.4799" gradientUnits="userSpaceOnUse">
<stop stop-color="#4AB272"/>
<stop offset="1" stop-color="#077565"/>
</linearGradient>
<linearGradient id="paint8_linear_118_13241" x1="23.2028" y1="10.2613" x2="22.0108" y2="11.3605" gradientUnits="userSpaceOnUse">
<stop stop-color="#91F27F"/>
<stop offset="1" stop-color="#00B302"/>
</linearGradient>
<linearGradient id="paint9_linear_118_13241" x1="23.1781" y1="22.2651" x2="21.9861" y2="23.3645" gradientUnits="userSpaceOnUse">
<stop stop-color="#91F27F"/>
<stop offset="1" stop-color="#00B302"/>
</linearGradient>
<linearGradient id="paint10_linear_118_13241" x1="18.1344" y1="10.2511" x2="16.9424" y2="11.3504" gradientUnits="userSpaceOnUse">
<stop stop-color="#91F27F"/>
<stop offset="1" stop-color="#00B302"/>
</linearGradient>
<linearGradient id="paint11_linear_118_13241" x1="18.1097" y1="22.2545" x2="16.9177" y2="23.3538" gradientUnits="userSpaceOnUse">
<stop stop-color="#91F27F"/>
<stop offset="1" stop-color="#00B302"/>
</linearGradient>
<linearGradient id="paint12_linear_118_13241" x1="19.862" y1="14.4974" x2="11.4018" y2="21.9033" gradientUnits="userSpaceOnUse">
<stop stop-color="#4AB272"/>
<stop offset="1" stop-color="#077565"/>
</linearGradient>
<linearGradient id="paint13_linear_118_13241" x1="17.2258" y1="16.9206" x2="30.6595" y2="3.69009" gradientUnits="userSpaceOnUse">
<stop stop-color="#92F37F" stop-opacity="0"/>
<stop offset="1" stop-color="#FFEE83"/>
</linearGradient>
<linearGradient id="paint14_linear_118_13241" x1="19.563" y1="14.8844" x2="13.7591" y2="19.3988" gradientUnits="userSpaceOnUse">
<stop stop-color="#91F27F"/>
<stop offset="1" stop-color="#00B302"/>
</linearGradient>
<linearGradient id="paint15_linear_118_13241" x1="17.6799" y1="18.3925" x2="20.0215" y2="8.55831" gradientUnits="userSpaceOnUse">
<stop stop-color="#92F37F"/>
<stop offset="1" stop-color="#4AB272"/>
</linearGradient>
<linearGradient id="paint16_linear_118_13241" x1="17.5807" y1="18.2427" x2="18.0634" y2="11.7447" gradientUnits="userSpaceOnUse">
<stop stop-color="#4AB272" stop-opacity="0"/>
<stop offset="1" stop-color="#009245"/>
</linearGradient>
<linearGradient id="paint17_linear_118_13241" x1="18.4133" y1="15.5527" x2="17.7247" y2="18.2486" gradientUnits="userSpaceOnUse">
<stop stop-color="#4AB272"/>
<stop offset="1" stop-color="#077565"/>
</linearGradient>
<linearGradient id="paint18_linear_118_13241" x1="18.7736" y1="9.13809" x2="18.0229" y2="10.5757" gradientUnits="userSpaceOnUse">
<stop stop-color="#91F27F"/>
<stop offset="1" stop-color="#00B302"/>
</linearGradient>
<linearGradient id="paint19_linear_118_13241" x1="22.8066" y1="20.4457" x2="22.0559" y2="21.8833" gradientUnits="userSpaceOnUse">
<stop stop-color="#91F27F"/>
<stop offset="1" stop-color="#00B302"/>
</linearGradient>
<linearGradient id="paint20_linear_118_13241" x1="13.9989" y1="10.8405" x2="13.2483" y2="12.2782" gradientUnits="userSpaceOnUse">
<stop stop-color="#91F27F"/>
<stop offset="1" stop-color="#00B302"/>
</linearGradient>
<linearGradient id="paint21_linear_118_13241" x1="18.0321" y1="22.1483" x2="17.2814" y2="23.5859" gradientUnits="userSpaceOnUse">
<stop stop-color="#91F27F"/>
<stop offset="1" stop-color="#00B302"/>
</linearGradient>
<linearGradient id="paint22_linear_118_13241" x1="17.0659" y1="14.3067" x2="11.6085" y2="24.1399" gradientUnits="userSpaceOnUse">
<stop stop-color="#4AB272"/>
<stop offset="1" stop-color="#077565"/>
</linearGradient>
<linearGradient id="paint23_linear_118_13241" x1="15.4043" y1="17.4787" x2="23.5723" y2="0.480426" gradientUnits="userSpaceOnUse">
<stop stop-color="#92F37F" stop-opacity="0"/>
<stop offset="1" stop-color="#FFEE83"/>
</linearGradient>
<linearGradient id="paint24_linear_118_13241" x1="16.9162" y1="14.7719" x2="12.9807" y2="20.9847" gradientUnits="userSpaceOnUse">
<stop stop-color="#91F27F"/>
<stop offset="1" stop-color="#00B302"/>
</linearGradient>
<linearGradient id="paint25_linear_118_13241" x1="16.3297" y1="18.7109" x2="15.2064" y2="8.66224" gradientUnits="userSpaceOnUse">
<stop stop-color="#92F37F"/>
<stop offset="1" stop-color="#4AB272"/>
</linearGradient>
<linearGradient id="paint26_linear_118_13241" x1="16.1856" y1="18.6039" x2="14.4414" y2="12.3244" gradientUnits="userSpaceOnUse">
<stop stop-color="#4AB272" stop-opacity="0"/>
<stop offset="1" stop-color="#009245"/>
</linearGradient>
<linearGradient id="paint27_linear_118_13241" x1="16.06" y1="15.79" x2="16.324" y2="18.5605" gradientUnits="userSpaceOnUse">
<stop stop-color="#4AB272"/>
<stop offset="1" stop-color="#077565"/>
</linearGradient>
<linearGradient id="paint28_linear_118_13241" x1="14.2283" y1="9.63173" x2="14.0082" y2="11.2388" gradientUnits="userSpaceOnUse">
<stop stop-color="#91F27F"/>
<stop offset="1" stop-color="#00B302"/>
</linearGradient>
<linearGradient id="paint29_linear_118_13241" x1="21.8506" y1="18.9109" x2="21.6305" y2="20.5181" gradientUnits="userSpaceOnUse">
<stop stop-color="#91F27F"/>
<stop offset="1" stop-color="#00B302"/>
</linearGradient>
<linearGradient id="paint30_linear_118_13241" x1="10.3103" y1="12.8495" x2="10.0901" y2="14.4567" gradientUnits="userSpaceOnUse">
<stop stop-color="#91F27F"/>
<stop offset="1" stop-color="#00B302"/>
</linearGradient>
<linearGradient id="paint31_linear_118_13241" x1="17.9326" y1="22.1287" x2="17.7124" y2="23.7359" gradientUnits="userSpaceOnUse">
<stop stop-color="#91F27F"/>
<stop offset="1" stop-color="#00B302"/>
</linearGradient>
<linearGradient id="paint32_linear_118_13241" x1="12.083" y1="13.0646" x2="22.7479" y2="30.3759" gradientUnits="userSpaceOnUse">
<stop stop-color="#8A7889"/>
<stop offset="1" stop-color="#6E566E"/>
</linearGradient>
<linearGradient id="paint33_linear_118_13241" x1="26.4183" y1="26.1571" x2="24.2431" y2="22.5569" gradientUnits="userSpaceOnUse">
<stop stop-color="#6E566E" stop-opacity="0"/>
<stop offset="0.2191" stop-color="#685168" stop-opacity="0.219"/>
<stop offset="1" stop-color="#564357"/>
</linearGradient>
<linearGradient id="paint34_linear_118_13241" x1="25.03" y1="19.6055" x2="25.635" y2="22.5501" gradientUnits="userSpaceOnUse">
<stop stop-color="#FF7044"/>
<stop offset="1" stop-color="#F82814"/>
</linearGradient>
<linearGradient id="paint35_linear_118_13241" x1="25.6909" y1="22.9665" x2="24.1906" y2="21.6682" gradientUnits="userSpaceOnUse">
<stop stop-color="#F82814" stop-opacity="0"/>
<stop offset="1" stop-color="#C0272D"/>
</linearGradient>
<radialGradient id="paint36_radial_118_13241" cx="0" cy="0" r="1" gradientUnits="userSpaceOnUse" gradientTransform="translate(23.4882 20.8291) scale(1.57541)">
<stop stop-color="#FFD945"/>
<stop offset="0.4169" stop-color="#FFD744"/>
<stop offset="0.6278" stop-color="#FFCF3F"/>
<stop offset="0.7926" stop-color="#FFC237"/>
<stop offset="0.9326" stop-color="#FFAF2C"/>
<stop offset="1" stop-color="#FFA325"/>
</radialGradient>
<linearGradient id="paint37_linear_118_13241" x1="24.0719" y1="21.5343" x2="22.5593" y2="20.0218" gradientUnits="userSpaceOnUse">
<stop stop-color="#FFD945" stop-opacity="0"/>
<stop offset="1" stop-color="#FBED21"/>
</linearGradient>
<linearGradient id="paint38_linear_118_13241" x1="24.3898" y1="21.3626" x2="26.7451" y2="19.369" gradientUnits="userSpaceOnUse">
<stop stop-color="#E87264" stop-opacity="0"/>
<stop offset="1" stop-color="#FF7044"/>
</linearGradient>
<linearGradient id="paint39_linear_118_13241" x1="23.852" y1="20.9254" x2="23.852" y2="19.7331" gradientUnits="userSpaceOnUse">
<stop stop-color="white" stop-opacity="0"/>
<stop offset="1" stop-color="white"/>
</linearGradient>
<clipPath id="clip0_118_13241">
<rect width="20.5714" height="20.5714" fill="white" transform="translate(7.71387 7.71436)"/>
</clipPath>
<clipPath id="clip1_118_13241">
<rect width="5.78571" height="5.78571" fill="white" transform="matrix(0 1 -1 0 21.2139 25.0713)"/>
</clipPath>
</defs>
</svg>
