<svg width="10" height="20" viewBox="0 0 10 20" fill="none" xmlns="http://www.w3.org/2000/svg">
<path d="M8.75016 4.99992V14.5833C8.75016 16.4249 7.2585 17.9166 5.41683 17.9166C3.57516 17.9166 2.0835 16.4249 2.0835 14.5833V4.16659C2.0835 3.01659 3.01683 2.08325 4.16683 2.08325C5.31683 2.08325 6.25016 3.01659 6.25016 4.16659V12.9166C6.25016 13.3749 5.87516 13.7499 5.41683 13.7499C4.9585 13.7499 4.5835 13.3749 4.5835 12.9166V4.99992H3.3335V12.9166C3.3335 14.0666 4.26683 14.9999 5.41683 14.9999C6.56683 14.9999 7.50016 14.0666 7.50016 12.9166V4.16659C7.50016 2.32492 6.0085 0.833252 4.16683 0.833252C2.32516 0.833252 0.833496 2.32492 0.833496 4.16659V14.5833C0.833496 17.1166 2.8835 19.1666 5.41683 19.1666C7.95016 19.1666 10.0002 17.1166 10.0002 14.5833V4.99992H8.75016Z" fill="#B2B2B2"/>
</svg>
