<svg width="9" height="15" viewBox="0 0 9 15" fill="none" xmlns="http://www.w3.org/2000/svg">
<path fill-rule="evenodd" clip-rule="evenodd" d="M0.407022 14.7173C0.16404 14.7348 -0.00402544 14.4793 0.106185 14.2589L2.12357 10.3204L0.43443 10.3867C0.175208 10.3975 0.0116035 10.0945 0.177243 9.87793L3.29028 5.83705L1.46174 5.93704C1.21036 5.94724 1.04117 5.67608 1.17489 5.45397L3.72574 1.26462C3.77498 1.18238 3.8651 1.12081 3.96699 1.11348L8.28745 0.716263C8.56122 0.688709 8.73492 1.02251 8.55304 1.23234L6.12872 4.00382L8.06474 3.86462C8.34691 3.84433 8.51277 4.1787 8.32305 4.3891L4.67759 8.47613L6.03302 8.37081C6.32303 8.34995 6.49001 8.69998 6.28406 8.90367L0.605184 14.6244C0.553695 14.6753 0.485403 14.7117 0.407022 14.7173Z" fill="#50A65C"/>
</svg>
