<svg width="20" height="20" viewBox="0 0 20 20" fill="none" xmlns="http://www.w3.org/2000/svg">
<path fill-rule="evenodd" clip-rule="evenodd" d="M17.5 8.45845V14.9722C17.5 16.8284 16.0076 18.3332 14.1667 18.3332H5.83333C3.99238 18.3332 2.5 16.8284 2.5 14.9722V8.45845C2.5 7.44931 2.9497 6.49359 3.72488 5.85527L7.89155 2.42429C9.11859 1.41391 10.8814 1.41391 12.1084 2.42429L16.2751 5.85527C17.0503 6.49358 17.5 7.44931 17.5 8.45845ZM8.33333 14.3748C7.98816 14.3748 7.70833 14.6547 7.70833 14.9998C7.70833 15.345 7.98816 15.6248 8.33333 15.6248H11.6667C12.0118 15.6248 12.2917 15.345 12.2917 14.9998C12.2917 14.6547 12.0118 14.3748 11.6667 14.3748H8.33333Z" fill="white"/>
</svg>
