<svg width="32" height="32" viewBox="0 0 32 32" fill="none" xmlns="http://www.w3.org/2000/svg">
<path d="M25.0949 7.40286L21.5641 4.13887C20.9242 3.53086 20.0815 3.2002 19.1962 3.2002H9.28685C7.3668 3.2002 5.79883 4.76816 5.79883 6.68822V25.3122C5.79883 27.2322 7.3668 28.8002 9.28685 28.8002H22.7161C24.6361 28.8002 26.2042 27.2322 26.2042 25.3122V9.96283C26.2042 8.99219 25.7988 8.06419 25.0949 7.40286ZM12.5188 11.9682C15.4025 9.08445 15.3025 9.17027 15.4095 9.09883C15.5801 8.98151 15.7935 8.91751 15.9962 8.91751H16.0068C16.2842 8.91751 16.5508 9.03483 16.7535 9.22689C17.8652 10.3429 19.596 12.0804 19.4842 11.9682C19.9001 12.3842 19.9001 13.0562 19.4842 13.4722C19.0682 13.8882 18.3962 13.8882 17.9801 13.4722L17.0735 12.5655V16.3309C17.0735 16.9282 16.5935 17.3975 16.0068 17.3975C15.4095 17.3975 14.9402 16.9282 14.9402 16.3309V12.5655L14.0229 13.4829C13.6237 13.882 12.9431 13.9072 12.5188 13.4829C12.1028 13.0669 12.1028 12.3842 12.5188 11.9682ZM20.1348 23.0829H11.8682C11.2815 23.0829 10.8015 22.6029 10.8015 22.0162C10.8015 21.4295 11.2815 20.9495 11.8682 20.9495H20.1348C20.7215 20.9495 21.2015 21.4295 21.2015 22.0162C21.2015 22.6029 20.7215 23.0829 20.1348 23.0829Z" fill="black"/>
</svg>
