<svg width="18" height="18" viewBox="0 0 18 18" fill="none" xmlns="http://www.w3.org/2000/svg">
<path d="M15.3674 11.8298C15.2887 12.0653 15.0697 12.2146 14.8334 12.2146C14.7749 12.2146 14.7149 12.2056 14.6557 12.1853L13.0649 11.6551C12.7702 11.5568 12.6112 11.2381 12.7087 10.9433C12.8077 10.6493 13.1227 10.4888 13.4204 10.5878L15.0112 11.1181C15.3059 11.2163 15.4649 11.5351 15.3674 11.8298ZM11.5139 13.0366C11.3744 12.7591 11.0369 12.6466 10.7594 12.7853C10.4812 12.9248 10.3687 13.2623 10.5074 13.5398L11.2574 15.0398C11.3564 15.2371 11.5544 15.3511 11.7614 15.3511C11.8454 15.3511 11.9317 15.3323 12.0119 15.2918C12.2902 15.1523 12.4027 14.8148 12.2639 14.5373L11.5139 13.0366ZM6.88267 2.98808C6.78367 2.69408 6.46792 2.53283 6.17092 2.63258C5.87617 2.73083 5.71717 3.04958 5.81467 3.34433L6.34492 4.93583C6.42367 5.17133 6.64267 5.32058 6.87892 5.32058C6.93742 5.32058 6.99742 5.31158 7.05667 5.29133C7.35142 5.19308 7.51042 4.87433 7.41292 4.57958L6.88267 2.98808ZM4.96267 6.48533L3.46267 5.73533C3.18517 5.59658 2.84842 5.70983 2.70817 5.98658C2.56867 6.26483 2.68192 6.60233 2.96017 6.74108L4.46017 7.49108C4.54042 7.53158 4.62667 7.55033 4.71067 7.55033C4.91692 7.55033 5.11567 7.43633 5.21467 7.23908C5.35417 6.96083 5.24092 6.62333 4.96267 6.48458V6.48533Z" fill="#549BFF"/>
<path d="M10.4581 7.54189C10.9891 8.07289 11.2824 8.77939 11.2824 9.53014C11.2824 10.2809 10.9891 10.9874 10.4581 11.5191L7.2766 14.7014C6.72835 15.2496 6.00835 15.5234 5.2876 15.5234C4.56685 15.5234 3.8476 15.2496 3.29935 14.7014C2.2036 13.6049 2.2036 11.8206 3.29935 10.7241L4.8901 9.13264C5.10985 8.91289 5.4661 8.91289 5.68585 9.13264C5.9056 9.35239 5.9056 9.70864 5.68585 9.92839L4.0951 11.5199C3.43735 12.1776 3.43735 13.2486 4.0951 13.9064C4.75285 14.5649 5.8246 14.5634 6.48235 13.9064L9.66385 10.7241C9.9826 10.4054 10.1581 9.98164 10.1581 9.53089C10.1581 9.08014 9.9826 8.65639 9.66385 8.33764C9.4441 8.11864 9.4441 7.76164 9.66385 7.54189C9.8836 7.32214 10.2399 7.32214 10.4596 7.54189H10.4581ZM14.7009 3.29914C13.6029 2.20264 11.8194 2.20339 10.7229 3.29914L7.54135 6.48139C7.01035 7.01239 6.7171 7.71889 6.7171 8.47039C6.7171 9.22189 7.01035 9.92764 7.54135 10.4586C7.65085 10.5681 7.79485 10.6236 7.93885 10.6236C8.08285 10.6236 8.22685 10.5689 8.33635 10.4586C8.5561 10.2389 8.5561 9.88264 8.33635 9.66289C8.0176 9.34414 7.8421 8.92039 7.8421 8.46964C7.8421 8.01889 8.0176 7.59514 8.33635 7.27639L11.5179 4.09414C12.1749 3.43714 13.2466 3.43564 13.9051 4.09414C14.5629 4.75189 14.5629 5.82289 13.9051 6.48064L12.3144 8.07214C12.0946 8.29189 12.0946 8.64814 12.3144 8.86789C12.5341 9.08764 12.8904 9.08764 13.1101 8.86789L14.7009 7.27639C15.7966 6.17989 15.7966 4.39564 14.7009 3.29914Z" fill="#112D55"/>
</svg>
