<svg width="20" height="20" viewBox="0 0 20 20" fill="none" xmlns="http://www.w3.org/2000/svg">
<g opacity="0.5">
<path d="M12.7087 5.83333C12.7087 7.3291 11.4961 8.54167 10.0003 8.54167V9.79167C12.1865 9.79167 13.9587 8.01946 13.9587 5.83333H12.7087ZM10.0003 8.54167C8.50455 8.54167 7.29199 7.3291 7.29199 5.83333H6.04199C6.04199 8.01946 7.8142 9.79167 10.0003 9.79167V8.54167ZM7.29199 5.83333C7.29199 4.33756 8.50455 3.125 10.0003 3.125V1.875C7.8142 1.875 6.04199 3.64721 6.04199 5.83333H7.29199ZM10.0003 3.125C11.4961 3.125 12.7087 4.33756 12.7087 5.83333H13.9587C13.9587 3.64721 12.1865 1.875 10.0003 1.875V3.125ZM15.2087 14.5833C15.2087 15.0245 14.8348 15.5921 13.8456 16.0867C12.8938 16.5626 11.5352 16.875 10.0003 16.875V18.125C11.6871 18.125 13.2452 17.7845 14.4046 17.2047C15.5267 16.6437 16.4587 15.753 16.4587 14.5833H15.2087ZM10.0003 16.875C8.46548 16.875 7.10685 16.5626 6.15504 16.0867C5.16586 15.5921 4.79199 15.0245 4.79199 14.5833H3.54199C3.54199 15.753 4.47396 16.6437 5.59603 17.2047C6.75548 17.7845 8.31351 18.125 10.0003 18.125V16.875ZM4.79199 14.5833C4.79199 14.1422 5.16586 13.5745 6.15504 13.08C7.10685 12.6041 8.46548 12.2917 10.0003 12.2917V11.0417C8.31351 11.0417 6.75548 11.3822 5.59603 11.9619C4.47396 12.523 3.54199 13.4137 3.54199 14.5833H4.79199ZM10.0003 12.2917C11.5352 12.2917 12.8938 12.6041 13.8456 13.08C14.8348 13.5745 15.2087 14.1422 15.2087 14.5833H16.4587C16.4587 13.4137 15.5267 12.523 14.4046 11.9619C13.2452 11.3822 11.6871 11.0417 10.0003 11.0417V12.2917Z" fill="white"/>
</g>
</svg>
