<svg width="22" height="24" viewBox="0 0 22 24" fill="none" xmlns="http://www.w3.org/2000/svg">
<path d="M21.4229 3.3589C21.3798 3.04946 21.1572 2.79493 20.8562 2.71127L11.2102 0.0287059C11.0727 -0.00956863 10.9274 -0.00956863 10.7898 0.0287059L1.14378 2.71127C0.84281 2.79493 0.620169 3.04936 0.577084 3.3589C0.521137 3.7612 -0.755203 13.2667 2.51852 17.9953C5.78838 22.7184 10.6121 23.9287 10.8158 23.978C10.8764 23.9926 10.9381 23.9998 11 23.9998C11.0619 23.9998 11.1236 23.9925 11.1841 23.978C11.388 23.9287 16.2117 22.7184 19.4815 17.9953C22.7552 13.2668 21.4788 3.76131 21.4229 3.3589ZM17.2204 8.90829L10.6409 15.4878C10.4878 15.6409 10.287 15.7176 10.0863 15.7176C9.88563 15.7176 9.68485 15.641 9.53175 15.4878L5.46367 11.4198C5.31654 11.2727 5.23392 11.0732 5.23392 10.8652C5.23392 10.6572 5.31664 10.4577 5.46367 10.3106L6.27141 9.5029C6.57771 9.19671 7.07434 9.1966 7.38054 9.5029L10.0863 12.2087L15.3036 6.99132C15.4506 6.84418 15.6501 6.76157 15.8581 6.76157C16.0661 6.76157 16.2657 6.84418 16.4127 6.99132L17.2204 7.79906C17.5267 8.10536 17.5267 8.60199 17.2204 8.90829Z" fill="#707070"/>
</svg>
