<svg width="24" height="24" viewBox="0 0 24 24" fill="none" xmlns="http://www.w3.org/2000/svg">
<path d="M10.6572 8.53479C11.144 7.18019 12.4397 6.21143 13.9616 6.21143C15.487 6.21143 16.7852 7.1846 17.2694 8.54411" stroke="#50A65C" stroke-width="1.03125" stroke-miterlimit="10" stroke-linecap="round" stroke-linejoin="round"/>
<path d="M22.0377 18.6188H15.921C14.6325 18.6188 13.5879 17.574 13.5879 16.2852C13.5879 14.9965 14.6325 13.9517 15.921 13.9517H22.0377" stroke="#50A65C" stroke-width="1.03125" stroke-miterlimit="10" stroke-linecap="round" stroke-linejoin="round"/>
<path d="M16.2148 16.2852H17.6451" stroke="#50A65C" stroke-width="1.03125" stroke-miterlimit="10" stroke-linecap="round" stroke-linejoin="round"/>
<path d="M8.77904 5.02734H3.62096C2.54935 5.02734 1.68066 5.89622 1.68066 6.96806" stroke="#50A65C" stroke-width="1.03125" stroke-miterlimit="10" stroke-linecap="round" stroke-linejoin="round"/>
<path d="M20.7452 8.92896L20.7828 8.8841C21.4982 8.17545 21.4982 7.02654 20.7828 6.31788L15.4619 1.04712C14.7465 0.338461 13.5867 0.338461 12.8713 1.04712L5.00195 8.84229" stroke="#50A65C" stroke-width="1.03125" stroke-miterlimit="10" stroke-linecap="round" stroke-linejoin="round"/>
<path d="M20.2016 8.90851H3.62096C2.57499 8.90851 1.72238 8.08075 1.68216 7.04443H1.68066V21.5436C1.68066 22.6154 2.55784 23.4843 3.63985 23.4843H20.2016C21.3708 23.4843 22.3186 22.5455 22.3186 21.3873V11.0056C22.3186 9.84737 21.3708 8.90851 20.2016 8.90851Z" stroke="#50A65C" stroke-width="1.03125" stroke-miterlimit="10" stroke-linecap="round" stroke-linejoin="round"/>
</svg>
